<svg width="500" height="500" viewBox="0 0 500 500" fill="none" xmlns="http://www.w3.org/2000/svg">
<path opacity="0.18" d="M202.99 87.1C185.09 104.15 175.78 128.54 158.45 146.17C126.8 178.33 72.03 184.67 49.49 223.78C38.22 243.25 37.78 267.68 44.56 289.1C51.34 310.52 64.84 329.27 80.14 345.74C107.37 375.05 141.22 398.38 178.8 412.07C196.63 418.57 215.58 422.94 234.47 421.46C256.78 419.72 277.68 410.02 299.69 405.96C322.9 401.73 346.98 403.85 370.09 399.03C393.2 394.21 416.92 379.73 421.78 356.63C424.8 342.25 420 327.03 423.26 312.74C428.95 287.73 456.06 274.51 470.95 253.62C478.67 242.75 483.01 229.84 483.44 216.51C483.86 202.35 479.35 187.55 468.97 177.91C461.13 170.62 450.77 166.84 440.84 162.84C395.02 144.44 357.37 116.48 317.34 88.41C282.98 64.3 236.7 55.02 203 87.11L202.99 87.1Z" fill="#68E1FD"/>
<path d="M266.72 310.26L273.99 435.44L285.72 436.34L312.47 306.61L323.79 437.99H335.52L356.22 312.22L312.47 287.47L266.72 310.26Z" fill="#231F20"/>
<path d="M420.11 148.25C420.11 148.25 422.35 143.32 420.86 134.35C419.37 125.39 429.11 112.85 429.11 112.85C430.66 113.7 431.52 115.43 431.27 117.18L438.22 99.0896C438.22 99.0896 441.64 97.4296 445.06 107.06C448.47 116.69 445.81 125.1 444.86 129.73C443.26 137.52 436.23 143.26 435.83 146.92C435.43 149.81 434.82 152.67 434 155.47L420.1 148.24L420.11 148.25Z" fill="#FFB4A3"/>
<path d="M312.25 119.839C312.25 119.839 281.24 119.759 278.61 121.509C275.98 123.259 269.15 127.559 264.71 138.639C260.27 149.719 237.44 210.669 237.44 210.669C237.44 210.669 235.61 216.969 241.72 223.289C247.83 229.609 267.15 252.429 267.15 252.429L259.57 309.959C259.57 309.959 307.49 313.579 313.13 299.129C313.13 299.129 330.61 309.059 356.26 312.219L364.72 315.429L365.42 206.769C372.48 215.319 383.57 219.459 394.51 217.629C413.47 214.699 431.5 190.539 439.61 159.979L413.45 146.169C413.45 146.169 403.52 185.459 386.82 178.659C375.17 173.899 375.18 156.009 373.87 143.429C373.16 136.619 368.22 130.989 361.55 129.409L339.39 124.149L312.27 119.839H312.25Z" fill="white"/>
<path d="M289.32 235.04L285.87 309.84C285.87 309.84 264.4 310.72 259.56 309.97L267.14 252.45L289.32 235.04Z" fill="#68E1FD"/>
<path d="M289.32 235.04L285.87 309.84C285.87 309.84 264.4 310.72 259.56 309.97L267.14 252.45L289.32 235.04Z" fill="url(#paint0_linear_310_3289)"/>
<path d="M365.41 206.779L358.39 190.979L349.17 311.149L364.71 315.439L365.41 206.779Z" fill="#68E1FD"/>
<path d="M365.41 206.779L358.39 190.979L349.17 311.149L364.71 315.439L365.41 206.779Z" fill="url(#paint1_linear_310_3289)"/>
<path d="M310.79 131.68C310.79 131.68 327.88 143.32 337.4 135.1L312.2 241.62L310.79 131.68Z" fill="#231F20"/>
<path d="M315.09 103.38C315.09 103.38 307.16 133.68 312.8 140.27C318.44 146.86 336.05 147.42 337.39 135.1C338.73 122.78 344.54 106.31 344.54 106.31L315.08 103.38H315.09Z" fill="#FFB4A3"/>
<path d="M314.25 110.78C314.25 110.78 320.99 127.69 326.81 130.38C332.62 133.06 337.68 131.08 338.42 128.72C339.16 126.36 342.19 113.7 342.19 113.7L314.26 110.78H314.25Z" fill="url(#paint2_linear_310_3289)"/>
<path d="M355.73 86.7197C355.73 105.95 344.89 121.54 331.52 121.54C318.15 121.54 307.31 105.93 307.31 86.7197C307.31 67.5097 319.18 60.3896 332.57 60.3896C345.96 60.3896 355.73 67.4697 355.73 86.7197Z" fill="#FFB4A3"/>
<path d="M365.12 75.6699C364.21 80.9199 361.27 85.6099 357.81 89.6699C357.8 89.3199 357.77 88.9699 357.72 88.6299C357.37 84.7699 356.76 80.8799 355.09 77.3999C353.26 73.5899 349.98 70.2899 345.86 69.4099C343.11 68.8199 340.16 69.3099 337.32 69.4599C334.99 69.5699 332.75 69.4599 330.75 68.3199C329.83 67.6599 328.86 67.0899 327.84 66.5899C322.04 64.4799 318.15 74.8799 317.92 78.8599C317.65 83.4499 318.4 88.2499 316.78 92.5699C315.37 92.0199 314.86 90.3399 314.33 88.9099C313.8 87.4799 312.7 85.8999 311.19 86.1399C310.44 86.3199 309.8 86.8099 309.44 87.4899C308.26 89.3999 308.56 91.8899 309.38 93.9699C310.2 96.0599 311.49 97.9399 312.29 100.04C313.59 103.54 313.42 107.42 311.82 110.79C308.51 106.33 306.16 101.23 304.91 95.8199L301.39 98.8899L301.62 85.5899C301.81 75.2899 302.32 64.0699 309.03 56.2599C314.17 50.2599 322.19 47.3999 330.06 46.6799C338.79 45.8799 348 47.5999 355.06 52.8299C362.12 58.0699 366.63 67.0299 365.13 75.6799L365.12 75.6699Z" fill="#231F20"/>
<path d="M361.6 75.7101C358.99 84.4401 357.72 88.6201 357.72 88.6201C357.37 84.7601 356.76 80.8701 355.09 77.3901C353.26 73.5801 349.98 70.2801 345.86 69.4001C343.11 68.8101 340.16 69.3001 337.32 69.4501C337.32 69.4501 347.89 63.8801 352.58 62.4701C357.27 61.0601 364.21 66.9901 361.6 75.7101Z" fill="#231F20"/>
<path d="M314.25 95.1003C314.25 95.1003 311.84 94.1203 312.59 92.2403C313.34 90.3603 312.67 89.3503 311.89 89.1003C311.11 88.8503 308.82 90.8103 311.19 95.1003C313.56 99.3903 314.26 95.1003 314.26 95.1003H314.25Z" fill="url(#paint3_linear_310_3289)"/>
<path d="M308.86 115.92L301.81 118.37C300.58 118.8 299.68 119.84 299.43 121.12L293.16 153.54L305.28 155.47L298.98 164.17L312.16 235.03L311.21 117.59C311.19 116.6 310.37 115.82 309.39 115.84C309.21 115.84 309.03 115.88 308.86 115.93V115.92Z" fill="#68E1FD"/>
<path d="M339.39 124.12L346.92 126.87L349.17 159.99H338.4L343 169.32L312.2 241.61C312.2 241.61 335.74 149.06 339.39 124.12Z" fill="#68E1FD"/>
<path d="M308.86 115.92L301.81 118.37C300.58 118.8 299.68 119.84 299.43 121.12L293.16 153.54L305.28 155.47L298.98 164.17L312.16 235.03L311.21 117.59C311.19 116.6 310.37 115.82 309.39 115.84C309.21 115.84 309.03 115.88 308.86 115.93V115.92Z" fill="url(#paint4_linear_310_3289)"/>
<path d="M339.39 124.12L346.92 126.87L349.17 159.99H338.4L343 169.32L312.2 241.61C312.2 241.61 335.74 149.06 339.39 124.12Z" fill="url(#paint5_linear_310_3289)"/>
<path d="M278.01 156.92L267.17 213.17L289.33 235.04L278.01 156.92Z" fill="#68E1FD"/>
<path d="M278.01 156.92L267.17 213.17L289.33 235.04L285.18 206.39L278.01 156.92Z" fill="url(#paint6_linear_310_3289)"/>
<path d="M289.33 235.04L273.24 255.08L267.14 252.44L287.41 233.14L289.33 235.04Z" fill="#231F20"/>
<path d="M287.53 237.28C287.53 237.28 292.39 247.85 293.17 253.95L273.22 255.07L287.53 237.28Z" fill="#FFB4A3"/>
<path d="M271.09 255.069L302.71 253.939C302.71 253.939 300.43 286.359 300.23 289.949C300.03 293.539 265.92 295.999 265.92 295.999L271.09 255.069Z" fill="white"/>
<path d="M362.66 256.25L331.53 254.14C331.53 254.14 328.15 286.33 328.35 289.94C328.55 293.56 360.19 298.16 360.19 298.16L362.66 256.25Z" fill="white"/>
<path d="M271.09 255.069L302.71 253.939C302.71 253.939 300.43 286.359 300.23 289.949C300.03 293.539 265.92 295.999 265.92 295.999L271.09 255.069Z" fill="#68E1FD"/>
<path d="M271.09 255.069L302.71 253.939C302.71 253.939 300.43 286.359 300.23 289.949C300.03 293.539 265.92 295.999 265.92 295.999L271.09 255.069Z" fill="url(#paint7_linear_310_3289)"/>
<path d="M362.66 256.25L331.53 254.14C331.53 254.14 328.15 286.33 328.35 289.94C328.55 293.56 360.19 298.16 360.19 298.16L362.66 256.25Z" fill="#68E1FD"/>
<path d="M362.66 256.25L331.53 254.14C331.53 254.14 328.15 286.33 328.35 289.94C328.55 293.56 360.19 298.16 360.19 298.16L362.66 256.25Z" fill="url(#paint8_linear_310_3289)"/>
<path d="M415.78 147.399L417.37 144.859L438.83 156.919L439.63 159.979L415.78 147.399Z" fill="#231F20"/>
<path d="M297.46 139.72C296.88 139.72 296.4 139.25 296.4 138.66C296.24 128.04 300.68 121.55 304.43 117.97C306.82 115.66 309.66 113.88 312.77 112.72C313.33 112.54 313.93 112.85 314.11 113.41C314.29 113.97 313.98 114.57 313.42 114.75C312.8 114.95 298.24 119.92 298.52 138.67C298.53 139.25 298.07 139.74 297.48 139.75C297.48 139.75 297.48 139.75 297.47 139.75V139.72H297.46Z" fill="#231F20"/>
<path d="M309.49 166.14H309.41C308.82 166.1 308.39 165.58 308.43 165C309.32 153.66 306.68 144.9 301.38 141.57C298.75 139.87 295.38 139.85 292.73 141.52C285.87 145.52 283.84 156.32 284.22 165.04C284.31 165.62 283.91 166.16 283.33 166.25C282.75 166.34 282.21 165.94 282.12 165.36C282.11 165.29 282.11 165.21 282.11 165.14C281.57 153.01 285.14 143.49 291.67 139.68C295 137.62 299.22 137.66 302.52 139.77C308.59 143.58 311.53 152.84 310.56 165.14C310.53 165.71 310.06 166.16 309.48 166.15L309.49 166.14Z" fill="#231F20"/>
<path d="M286.5 166.28C286.5 168.03 285.09 169.45 283.34 169.45C281.59 169.45 280.17 168.04 280.17 166.29C280.17 164.54 281.58 163.12 283.33 163.12C285.08 163.12 286.5 164.53 286.5 166.28Z" fill="#68E1FD"/>
<path d="M312.25 166.66C312.25 168.41 310.83 169.82 309.09 169.82C307.35 169.82 305.93 168.4 305.93 166.66C305.93 164.92 307.35 163.5 309.09 163.5C310.84 163.5 312.25 164.92 312.25 166.66Z" fill="#68E1FD"/>
<path d="M286.5 166.28C286.5 168.03 285.09 169.45 283.34 169.45C281.59 169.45 280.17 168.04 280.17 166.29C280.17 164.54 281.58 163.12 283.33 163.12C285.08 163.12 286.5 164.53 286.5 166.28Z" fill="url(#paint9_linear_310_3289)"/>
<path d="M312.25 166.66C312.25 168.41 310.83 169.82 309.09 169.82C307.35 169.82 305.93 168.4 305.93 166.66C305.93 164.92 307.35 163.5 309.09 163.5C310.84 163.5 312.25 164.92 312.25 166.66Z" fill="url(#paint10_linear_310_3289)"/>
<path d="M344.55 187.71C343.96 187.71 343.48 187.23 343.48 186.64C343.48 186.48 343.52 186.33 343.58 186.18L349.57 173.61C362.96 132.31 340.41 120.91 340.2 120.81C339.67 120.55 339.44 119.91 339.7 119.38C339.96 118.85 340.6 118.62 341.13 118.88C341.38 119.01 347.47 121.99 351.77 130.42C355.7 138.08 358.86 151.92 351.58 174.34L351.53 174.47L345.51 187.1C345.33 187.47 344.96 187.71 344.54 187.71H344.55Z" fill="#231F20"/>
<path d="M343.01 195.92C346.418 195.92 349.18 193.158 349.18 189.75C349.18 186.342 346.418 183.58 343.01 183.58C339.603 183.58 336.84 186.342 336.84 189.75C336.84 193.158 339.603 195.92 343.01 195.92Z" fill="#68E1FD"/>
<path d="M343.01 195.92C346.418 195.92 349.18 193.158 349.18 189.75C349.18 186.342 346.418 183.58 343.01 183.58C339.603 183.58 336.84 186.342 336.84 189.75C336.84 193.158 339.603 195.92 343.01 195.92Z" fill="url(#paint11_linear_310_3289)"/>
<path d="M343.29 193.539C345.687 193.539 347.63 191.596 347.63 189.199C347.63 186.802 345.687 184.859 343.29 184.859C340.893 184.859 338.95 186.802 338.95 189.199C338.95 191.596 340.893 193.539 343.29 193.539Z" fill="#68E1FD"/>
<path d="M344.68 190.98C347.077 190.98 349.02 189.037 349.02 186.64C349.02 184.243 347.077 182.3 344.68 182.3C342.283 182.3 340.34 184.243 340.34 186.64C340.34 189.037 342.283 190.98 344.68 190.98Z" fill="#68E1FD"/>
<path d="M344.68 190.98C347.077 190.98 349.02 189.037 349.02 186.64C349.02 184.243 347.077 182.3 344.68 182.3C342.283 182.3 340.34 184.243 340.34 186.64C340.34 189.037 342.283 190.98 344.68 190.98Z" fill="url(#paint12_linear_310_3289)"/>
<path d="M275.34 440.859L275.64 435.439L285.72 436.339L284.38 444.469C284.38 444.469 279.4 452.139 275.34 440.859Z" fill="#FFB4A3"/>
<path d="M334.5 445.269L334.12 437.999L323.79 437.899V447.019C323.79 447.019 330.46 456.549 334.5 445.269Z" fill="#FFB4A3"/>
<path d="M275.34 440.859C275.34 440.859 256.31 450.239 254.07 453.649C252.6 456.139 251.51 458.849 250.86 461.669C250.86 461.669 262.49 461.869 269.72 459.459C276.95 457.049 285.72 454.439 285.72 454.439V441.999C285.72 441.999 285.57 440.549 283.47 442.199C281.37 443.849 279.24 445.409 277.37 444.309C275.5 443.219 276.47 440.769 275.34 440.839V440.859Z" fill="#68E1FD"/>
<path d="M334.99 443.69C334.99 443.69 351.64 454.04 353.59 457.6C354.88 460.2 355.77 462.97 356.21 465.84C356.21 465.84 344.59 465.2 337.56 462.27C330.53 459.35 321.99 456.1 321.99 456.1L322.89 443.7C322.89 443.7 323.14 442.29 325.12 444.06C327.1 445.83 330.76 447.95 332.72 447.01C334.68 446.07 333.85 443.52 334.97 443.68L334.99 443.69Z" fill="#68E1FD"/>
<path d="M275.34 440.859C275.34 440.859 256.31 450.239 254.07 453.649C252.6 456.139 251.51 458.849 250.86 461.669C250.86 461.669 262.49 461.869 269.72 459.459C276.95 457.049 285.72 454.439 285.72 454.439V441.999C285.72 441.999 285.57 440.549 283.47 442.199C281.37 443.849 279.24 445.409 277.37 444.309C275.5 443.219 276.47 440.769 275.34 440.839V440.859Z" fill="url(#paint13_linear_310_3289)"/>
<path d="M334.99 443.69C334.99 443.69 351.64 454.04 353.59 457.6C354.88 460.2 355.77 462.97 356.21 465.84C356.21 465.84 344.59 465.2 337.56 462.27C330.53 459.35 321.99 456.1 321.99 456.1L322.89 443.7C322.89 443.7 323.14 442.29 325.12 444.06C327.1 445.83 330.76 447.95 332.72 447.01C334.68 446.07 333.85 443.52 334.97 443.68L334.99 443.69Z" fill="url(#paint14_linear_310_3289)"/>
<path d="M228.71 286.78H140.01C137.74 286.78 135.9 284.94 135.9 282.67C135.9 280.4 137.74 278.56 140.01 278.56H228.71C230.98 278.56 232.82 280.4 232.82 282.67C232.83 284.94 231 286.79 228.73 286.8L228.71 286.78Z" fill="#68E1FD"/>
<path d="M185.02 282.62C185.02 284.88 183.19 286.72 180.93 286.73H40.5601V278.53H180.93C183.18 278.54 185.01 280.36 185.02 282.62Z" fill="#68E1FD"/>
<path d="M232.81 282.62C232.81 284.89 230.97 286.72 228.7 286.73H180.93C183.2 286.73 185.04 284.89 185.04 282.62C185.04 280.35 183.2 278.51 180.93 278.51H228.71C230.97 278.51 232.8 280.35 232.8 282.62H232.81Z" fill="url(#paint15_linear_310_3289)"/>
<path d="M185.02 282.62C185.02 284.88 183.19 286.72 180.93 286.73H40.5601V278.53H180.93C183.18 278.54 185.01 280.36 185.02 282.62Z" fill="url(#paint16_linear_310_3289)"/>
<path d="M227.25 286.75H140.02V384.37H227.25V286.75Z" fill="#68E1FD"/>
<path d="M227.25 286.75H140.02V384.37H227.25V286.75Z" fill="url(#paint17_linear_310_3289)"/>
<path d="M185.04 286.75H40.5701V384.37H185.04V286.75Z" fill="#68E1FD"/>
<path d="M185.61 278.39V278.52H108.4C108.4 278.52 119.67 241.43 153.98 242.58C154.68 242.58 155.3 242.64 155.94 242.69C187.67 245.01 186.08 275.29 185.61 278.39Z" fill="#68E1FD"/>
<path d="M185.61 278.39H165.88L166.03 276.44C166.03 276.44 172.05 247.55 155.95 242.72C187.67 245.01 186.08 275.29 185.61 278.39Z" fill="#68E1FD"/>
<path d="M185.61 278.39V278.52H108.4C108.4 278.52 119.67 241.43 153.98 242.58C154.68 242.58 155.3 242.64 155.94 242.69C187.67 245.01 186.08 275.29 185.61 278.39Z" fill="url(#paint18_linear_310_3289)"/>
<path d="M185.61 278.39H165.88L166.03 276.44C166.03 276.44 172.05 247.55 155.95 242.72C187.67 245.01 186.08 275.29 185.61 278.39Z" fill="url(#paint19_linear_310_3289)"/>
<defs>
<linearGradient id="paint0_linear_310_3289" x1="259.56" y1="272.65" x2="289.32" y2="272.65" gradientUnits="userSpaceOnUse">
<stop stop-color="white" stop-opacity="0"/>
<stop offset="0.13" stop-color="white" stop-opacity="0.17"/>
<stop offset="0.37" stop-color="white" stop-opacity="0.46"/>
<stop offset="0.59" stop-color="white" stop-opacity="0.68"/>
<stop offset="0.77" stop-color="white" stop-opacity="0.85"/>
<stop offset="0.91" stop-color="white" stop-opacity="0.95"/>
<stop offset="1" stop-color="white" stop-opacity="0.99"/>
</linearGradient>
<linearGradient id="paint1_linear_310_3289" x1="374.6" y1="253.599" x2="345.52" y2="252.719" gradientUnits="userSpaceOnUse">
<stop stop-color="white" stop-opacity="0"/>
<stop offset="0.13" stop-color="white" stop-opacity="0.17"/>
<stop offset="0.37" stop-color="white" stop-opacity="0.46"/>
<stop offset="0.59" stop-color="white" stop-opacity="0.68"/>
<stop offset="0.77" stop-color="white" stop-opacity="0.85"/>
<stop offset="0.91" stop-color="white" stop-opacity="0.95"/>
<stop offset="1" stop-color="white" stop-opacity="0.99"/>
</linearGradient>
<linearGradient id="paint2_linear_310_3289" x1="287.51" y1="80.2103" x2="480.82" y2="253.1" gradientUnits="userSpaceOnUse">
<stop stop-color="#231F20" stop-opacity="0"/>
<stop offset="1" stop-color="#231F20"/>
</linearGradient>
<linearGradient id="paint3_linear_310_3289" x1="300.21" y1="89.6803" x2="370.14" y2="109.01" gradientUnits="userSpaceOnUse">
<stop stop-color="#231F20" stop-opacity="0"/>
<stop offset="1" stop-color="#231F20"/>
</linearGradient>
<linearGradient id="paint4_linear_310_3289" x1="279.77" y1="181.45" x2="330.03" y2="171.66" gradientUnits="userSpaceOnUse">
<stop stop-color="white" stop-opacity="0"/>
<stop offset="0.13" stop-color="white" stop-opacity="0.17"/>
<stop offset="0.37" stop-color="white" stop-opacity="0.46"/>
<stop offset="0.59" stop-color="white" stop-opacity="0.68"/>
<stop offset="0.77" stop-color="white" stop-opacity="0.85"/>
<stop offset="0.91" stop-color="white" stop-opacity="0.95"/>
<stop offset="1" stop-color="white" stop-opacity="0.99"/>
</linearGradient>
<linearGradient id="paint5_linear_310_3289" x1="353.27" y1="197.08" x2="308.83" y2="173.01" gradientUnits="userSpaceOnUse">
<stop stop-color="white" stop-opacity="0"/>
<stop offset="0.13" stop-color="white" stop-opacity="0.17"/>
<stop offset="0.37" stop-color="white" stop-opacity="0.46"/>
<stop offset="0.59" stop-color="white" stop-opacity="0.68"/>
<stop offset="0.77" stop-color="white" stop-opacity="0.85"/>
<stop offset="0.91" stop-color="white" stop-opacity="0.95"/>
<stop offset="1" stop-color="white" stop-opacity="0.99"/>
</linearGradient>
<linearGradient id="paint6_linear_310_3289" x1="265.16" y1="197.6" x2="283.4" y2="196" gradientUnits="userSpaceOnUse">
<stop stop-color="white" stop-opacity="0"/>
<stop offset="0.13" stop-color="white" stop-opacity="0.17"/>
<stop offset="0.37" stop-color="white" stop-opacity="0.46"/>
<stop offset="0.59" stop-color="white" stop-opacity="0.68"/>
<stop offset="0.77" stop-color="white" stop-opacity="0.85"/>
<stop offset="0.91" stop-color="white" stop-opacity="0.95"/>
<stop offset="1" stop-color="white" stop-opacity="0.99"/>
</linearGradient>
<linearGradient id="paint7_linear_310_3289" x1="285.64" y1="233.329" x2="283.89" y2="288.009" gradientUnits="userSpaceOnUse">
<stop stop-color="white" stop-opacity="0"/>
<stop offset="0.13" stop-color="white" stop-opacity="0.17"/>
<stop offset="0.37" stop-color="white" stop-opacity="0.46"/>
<stop offset="0.59" stop-color="white" stop-opacity="0.68"/>
<stop offset="0.77" stop-color="white" stop-opacity="0.85"/>
<stop offset="0.91" stop-color="white" stop-opacity="0.95"/>
<stop offset="1" stop-color="white" stop-opacity="0.99"/>
</linearGradient>
<linearGradient id="paint8_linear_310_3289" x1="348.2" y1="223.4" x2="344.12" y2="297.87" gradientUnits="userSpaceOnUse">
<stop stop-color="white" stop-opacity="0"/>
<stop offset="0.13" stop-color="white" stop-opacity="0.17"/>
<stop offset="0.37" stop-color="white" stop-opacity="0.46"/>
<stop offset="0.59" stop-color="white" stop-opacity="0.68"/>
<stop offset="0.77" stop-color="white" stop-opacity="0.85"/>
<stop offset="0.91" stop-color="white" stop-opacity="0.95"/>
<stop offset="1" stop-color="white" stop-opacity="0.99"/>
</linearGradient>
<linearGradient id="paint9_linear_310_3289" x1="282.04" y1="164.32" x2="287.66" y2="172.85" gradientUnits="userSpaceOnUse">
<stop stop-color="#231F20" stop-opacity="0"/>
<stop offset="1" stop-color="#231F20"/>
</linearGradient>
<linearGradient id="paint10_linear_310_3289" x1="308.42" y1="165.11" x2="311.79" y2="172.91" gradientUnits="userSpaceOnUse">
<stop stop-color="#231F20" stop-opacity="0"/>
<stop offset="1" stop-color="#231F20"/>
</linearGradient>
<linearGradient id="paint11_linear_310_3289" x1="336.84" y1="189.75" x2="349.17" y2="189.75" gradientUnits="userSpaceOnUse">
<stop stop-color="#231F20" stop-opacity="0"/>
<stop offset="1" stop-color="#231F20"/>
</linearGradient>
<linearGradient id="paint12_linear_310_3289" x1="344.97" y1="180.07" x2="343.88" y2="205.47" gradientUnits="userSpaceOnUse">
<stop stop-color="#231F20" stop-opacity="0"/>
<stop offset="1" stop-color="#231F20"/>
</linearGradient>
<linearGradient id="paint13_linear_310_3289" x1="250.87" y1="451.259" x2="285.72" y2="451.259" gradientUnits="userSpaceOnUse">
<stop stop-color="#231F20" stop-opacity="0"/>
<stop offset="1" stop-color="#231F20"/>
</linearGradient>
<linearGradient id="paint14_linear_310_3289" x1="322" y1="454.5" x2="356.22" y2="454.5" gradientUnits="userSpaceOnUse">
<stop stop-color="#231F20" stop-opacity="0"/>
<stop offset="1" stop-color="#231F20"/>
</linearGradient>
<linearGradient id="paint15_linear_310_3289" x1="205.97" y1="274.85" x2="211.08" y2="330.31" gradientUnits="userSpaceOnUse">
<stop stop-color="#231F20" stop-opacity="0"/>
<stop offset="1" stop-color="#231F20"/>
</linearGradient>
<linearGradient id="paint16_linear_310_3289" x1="113.59" y1="255.71" x2="109.01" y2="398.3" gradientUnits="userSpaceOnUse">
<stop stop-color="#231F20" stop-opacity="0"/>
<stop offset="1" stop-color="#231F20"/>
</linearGradient>
<linearGradient id="paint17_linear_310_3289" x1="153.52" y1="335.98" x2="417.91" y2="332.28" gradientUnits="userSpaceOnUse">
<stop stop-color="#231F20" stop-opacity="0"/>
<stop offset="1" stop-color="#231F20"/>
</linearGradient>
<linearGradient id="paint18_linear_310_3289" x1="144.64" y1="244.99" x2="151.78" y2="335.55" gradientUnits="userSpaceOnUse">
<stop stop-color="#231F20" stop-opacity="0"/>
<stop offset="1" stop-color="#231F20"/>
</linearGradient>
<linearGradient id="paint19_linear_310_3289" x1="195.17" y1="234.93" x2="36.8" y2="401.33" gradientUnits="userSpaceOnUse">
<stop stop-color="#231F20" stop-opacity="0"/>
<stop offset="1" stop-color="#231F20"/>
</linearGradient>
</defs>
</svg>
