<svg width="23" height="18" viewBox="0 0 23 18" fill="none" xmlns="http://www.w3.org/2000/svg">
<g id="Email">
<path id="Vector" d="M21.7532 3.91797V13.9149C21.7532 14.5777 21.4899 15.2134 21.0212 15.6821C20.5525 16.1508 19.9168 16.4141 19.254 16.4141H4.25863C3.59579 16.4141 2.9601 16.1508 2.49141 15.6821C2.02271 15.2134 1.7594 14.5777 1.7594 13.9149V3.91797" stroke="#3F81B4" stroke-width="1.67948" stroke-linecap="round" stroke-linejoin="round"/>
<path id="Vector_2" d="M21.7532 3.91769C21.7532 3.25485 21.4899 2.61916 21.0212 2.15046C20.5525 1.68177 19.9168 1.41846 19.254 1.41846H4.25863C3.59579 1.41846 2.9601 1.68177 2.49141 2.15046C2.02271 2.61916 1.7594 3.25485 1.7594 3.91769L10.4317 9.33268C10.8289 9.58094 11.2879 9.71257 11.7563 9.71257C12.2247 9.71257 12.6837 9.58094 13.0809 9.33268L21.7532 3.91769Z" stroke="#3F81B4" stroke-width="1.67948" stroke-linecap="round" stroke-linejoin="round"/>
</g>
</svg>
