<svg width="20" height="22" viewBox="0 0 20 22" fill="none" xmlns="http://www.w3.org/2000/svg">
<g id="Mark">
<path id="Vector" d="M18.2269 9.58169C18.2269 16.0343 11.6179 20.0096 10.2444 20.7668C10.1683 20.8087 10.0829 20.8308 9.99598 20.8308C9.90908 20.8308 9.82361 20.8087 9.74752 20.7668C8.37305 20.0096 1.76611 16.0343 1.76611 9.58169C1.76611 4.4377 4.8525 0.836914 9.99649 0.836914C15.1405 0.836914 18.2269 4.4377 18.2269 9.58169Z" stroke="#3F81B4" stroke-width="1.67948" stroke-linecap="round" stroke-linejoin="round"/>
<path id="Vector_2" d="M5.88123 9.06782C5.88123 10.1592 6.31479 11.206 7.08654 11.9777C7.85828 12.7494 8.905 13.183 9.99641 13.183C11.0878 13.183 12.1345 12.7494 12.9063 11.9777C13.678 11.206 14.1116 10.1592 14.1116 9.06782C14.1116 7.97641 13.678 6.92969 12.9063 6.15795C12.1345 5.3862 11.0878 4.95264 9.99641 4.95264C8.905 4.95264 7.85828 5.3862 7.08654 6.15795C6.31479 6.92969 5.88123 7.97641 5.88123 9.06782V9.06782Z" stroke="#3F81B4" stroke-width="1.67948" stroke-linecap="round" stroke-linejoin="round"/>
</g>
</svg>
