<svg width="51" height="50" viewBox="0 0 51 50" fill="none" xmlns="http://www.w3.org/2000/svg">
<path d="M50.5 25C50.5 38.5217 39.3165 49.5 25.5 49.5C11.6835 49.5 0.5 38.5217 0.5 25C0.5 11.4783 11.6835 0.5 25.5 0.5C39.3165 0.5 50.5 11.4783 50.5 25Z" fill="#BDE2FF" stroke="#3F81B4"/>
<path d="M13 15.7879C13 14.9798 13.2928 14.3131 13.8784 13.7879C14.464 13.2626 15.2252 13 16.1622 13C17.0824 13 17.8269 13.2586 18.3958 13.7758C18.9813 14.3091 19.2741 15.004 19.2741 15.8606C19.2741 16.6364 18.9897 17.2828 18.4208 17.8C17.8353 18.3333 17.0656 18.6 16.112 18.6H16.0869C15.1667 18.6 14.4221 18.3333 13.8533 17.8C13.2844 17.2667 13 16.596 13 15.7879ZM13.3263 37V20.8061H18.8977V37H13.3263ZM21.9846 37H27.556V27.9576C27.556 27.3919 27.6229 26.9555 27.7568 26.6485C27.991 26.099 28.3465 25.6343 28.8234 25.2545C29.3002 24.8747 29.8983 24.6848 30.6178 24.6848C32.4916 24.6848 33.4286 25.905 33.4286 28.3455V37H39V27.7152C39 25.3232 38.4144 23.5091 37.2432 22.2727C36.0721 21.0364 34.5245 20.4182 32.6004 20.4182C30.4421 20.4182 28.7606 21.3152 27.556 23.1091V23.1576H27.5309L27.556 23.1091V20.8061H21.9846C22.018 21.3232 22.0347 22.9313 22.0347 25.6303C22.0347 28.3293 22.018 32.1192 21.9846 37Z" fill="#3F81B4"/>
</svg>
