<svg width="634" height="463" viewBox="0 0 634 463" fill="none" xmlns="http://www.w3.org/2000/svg">
<path d="M484.55 232.428C484.55 232.428 461.57 269.078 456.56 303.688C451.55 338.298 449 354.528 449 354.528L475.06 356.728L474.08 340.898C474.08 340.898 500 256.469 500.89 251.989C501.78 247.509 486.33 228.928 484.55 232.438V232.428Z" fill="#68E1FD"/>
<path d="M484.55 232.428C484.55 232.428 461.57 269.078 456.56 303.688C451.55 338.298 449 354.528 449 354.528L475.06 356.728L474.08 340.898C474.08 340.898 500 256.469 500.89 251.989C501.78 247.509 486.33 228.928 484.55 232.438V232.428Z" fill="url(#paint0_linear_2583_2937)"/>
<path d="M483.738 279.627C483.738 279.627 507.949 127.728 514.297 116.209C520.645 104.691 540.869 103.251 579.99 107.858C594.31 109.586 604.349 112.61 611.287 115.633C620.587 119.809 625.754 129.455 623.983 139.246L596.524 290.282L483.738 279.627Z" fill="#231F20"/>
<path d="M596.292 292.671H596.145L483.506 282.017C482.916 282.017 482.473 281.441 482.473 280.865C482.473 280.865 482.473 280.865 482.473 280.721C483.506 274.53 506.831 128.533 513.179 117.015C519.527 105.497 538.128 103.193 580.053 108.088C592.749 109.528 603.378 112.264 611.645 116.007C621.241 120.327 626.703 130.549 624.932 140.772L597.473 291.663C597.325 292.239 596.883 292.671 596.292 292.671ZM484.835 279.857L595.406 290.367L622.717 140.34C624.341 131.125 619.469 121.91 610.759 118.023C602.64 114.279 592.159 111.688 579.758 110.248C545.804 106.216 521.741 106.072 515.098 118.023C509.341 128.677 487.197 265.891 484.835 279.857Z" fill="#231F20"/>
<path d="M564.996 292.671H564.848C564.257 292.527 563.815 291.951 563.962 291.375L591.421 140.34V140.196C592.454 136.308 591.863 132.277 589.797 128.821C586.697 124.07 580.349 121.19 571.048 120.183C570.458 120.183 570.015 119.607 570.015 119.031C570.015 118.455 570.605 118.023 571.196 118.023C581.234 119.175 588.025 122.342 591.568 127.67C594.078 131.557 594.668 136.308 593.487 140.772L566.029 291.663C566.029 292.239 565.586 292.671 564.996 292.671Z" fill="white"/>
<path d="M447.728 193.897C448.493 194.54 449.442 194.926 450.444 194.99C456.599 195.543 466.603 187.341 469.978 184.68L482.552 174.949C490.606 168.739 498.172 158.571 490.224 149.238C489.986 148.942 489.723 148.659 489.446 148.402C488.681 147.605 487.785 146.937 486.81 146.397C484.727 145.24 482.328 144.764 479.956 145.034C474.512 145.703 470.334 150.125 466.946 154.56C460.356 162.916 454.741 171.915 448.862 180.746C447.465 182.739 446.424 184.937 445.791 187.264C445.184 189.655 445.936 192.175 447.768 193.885L447.728 193.897Z" fill="#68E1FD"/>
<path d="M450.431 195.003C456.586 195.556 466.591 187.354 469.965 184.693L482.54 174.961C490.593 168.752 498.159 158.584 490.211 149.251C488.352 148.415 486.296 148.094 484.253 148.325C478.73 148.994 474.605 153.416 471.244 157.71C464.653 166.117 459.038 175.09 453.159 184.037C451.736 186.004 450.695 188.202 450.088 190.542C449.772 192.033 449.891 193.589 450.457 195.016L450.431 195.003Z" fill="url(#paint1_linear_2583_2937)"/>
<path d="M481.603 122.331C479.85 123.938 478.36 125.777 477.161 127.808L471.401 136.755C469.332 139.416 468.04 142.579 467.684 145.895C467.618 146.538 467.829 147.168 468.251 147.657C468.633 147.978 469.094 148.184 469.595 148.274C475.988 149.829 482.539 150.626 489.129 150.652C491.396 150.665 493.65 150.176 495.693 149.225C499.002 147.091 501.335 143.8 502.218 140.033C503.971 134.981 509.098 124.491 503.365 120.313C498.171 116.739 486.256 118.462 481.616 122.319L481.603 122.331Z" fill="#68E1FD"/>
<path d="M480.747 122.331C478.994 123.925 477.491 125.777 476.305 127.808L470.545 136.755C468.475 139.416 467.183 142.579 466.828 145.895C466.762 146.538 466.973 147.168 467.394 147.657C467.777 147.978 468.238 148.196 468.739 148.274C475.132 149.829 481.682 150.626 488.273 150.652C490.514 150.78 492.754 150.408 494.837 149.585C498.132 147.451 500.465 144.16 501.335 140.393C503.115 135.341 508.189 124.864 502.508 120.673C497.183 116.739 485.399 118.462 480.76 122.319L480.747 122.331Z" fill="url(#paint2_linear_2583_2937)"/>
<path d="M550.421 66.102C550.579 71.3855 549.09 76.592 546.15 81.0271C545.399 81.9655 544.74 82.9683 544.173 84.0224C543.303 86.5163 543.172 89.1903 543.778 91.7613C544.727 97.9962 545.808 104.642 550.131 109.36C550.395 109.617 550.592 109.913 550.737 110.247C551.027 111.083 550.25 111.919 549.591 112.626C547.416 114.58 545.175 116.457 542.908 118.333C540.588 120.39 537.991 122.139 535.197 123.527C531.177 125.288 526.643 125.597 522.412 124.414C521.805 124.324 521.265 123.977 520.949 123.463C520.804 123.026 520.804 122.563 520.949 122.126C522.095 116.675 522.978 111.122 523.558 105.465C523.73 104.282 523.73 103.1 523.558 101.917C523.282 100.889 522.926 99.8859 522.491 98.9218C521.449 95.9522 520.83 92.8412 520.632 89.7045C519.947 83.2254 520.487 76.6691 522.201 70.37C523.927 64.0194 527.499 58.2988 532.482 53.8765C535.975 50.8941 542.592 47.5902 546.954 51.0612C548.207 52.4367 548.984 54.1593 549.182 55.9848C550.012 59.3015 550.434 62.6953 550.447 66.102H550.421Z" fill="#68E1FD"/>
<path d="M550.421 66.102C550.579 71.3855 549.09 76.592 546.15 81.0271C545.399 81.9655 544.74 82.9683 544.173 84.0224C543.303 86.5163 543.172 89.1903 543.778 91.7613C544.727 97.9962 545.808 104.642 550.131 109.36C550.395 109.617 550.592 109.913 550.737 110.247C551.027 111.083 550.25 111.919 549.591 112.626C547.416 114.58 545.175 116.457 542.908 118.333C540.588 120.39 537.991 122.139 535.197 123.527C531.177 125.288 526.643 125.597 522.412 124.414C521.805 124.324 521.265 123.977 520.949 123.463C520.804 123.026 520.804 122.563 520.949 122.126C522.095 116.675 522.978 111.122 523.558 105.465C523.73 104.282 523.73 103.1 523.558 101.917C523.282 100.889 522.926 99.8859 522.491 98.9218C521.449 95.9522 520.83 92.8412 520.632 89.7045C519.947 83.2254 520.487 76.6691 522.201 70.37C523.927 64.0194 527.499 58.2988 532.482 53.8765C535.975 50.8941 542.592 47.5902 546.954 51.0612C548.207 52.4367 548.984 54.1593 549.182 55.9848C550.012 59.3015 550.434 62.6953 550.447 66.102H550.421Z" fill="url(#paint3_linear_2583_2937)"/>
<path d="M554.375 45.7647C554.256 43.4507 553.545 41.201 552.279 39.247L548.523 32.228C547.653 30.4539 546.572 28.7827 545.28 27.2787C542.934 24.939 539.929 23.3578 536.634 22.7278C531.664 21.8022 526.577 21.6094 521.541 22.1622C518.839 22.2651 516.15 22.6379 513.541 23.2806C505.988 25.8389 500.057 31.6495 497.447 39.0156C494.982 46.3303 493.954 54.0179 494.389 61.7054C494.349 65.5492 494.6 69.3801 495.167 73.1853C496.379 79.1887 498.449 84.9994 501.296 90.4501C502.535 93.2268 504.182 95.8236 506.173 98.1376C510.061 103.087 517.324 104.025 522.398 100.246C523.202 99.6417 523.927 98.9475 524.547 98.1504C527.077 95.2965 529.094 92.0313 530.478 88.5089C532.35 84.9865 533.391 81.0913 533.536 77.1319C533.167 74.8565 533.022 72.5553 533.075 70.2542C533.694 67.606 534.973 65.1506 536.805 63.1066C538.532 60.497 540.72 58.2087 543.277 56.3447C545.636 54.9049 547.864 53.2723 549.92 51.4339C551.528 49.6727 554.243 48.94 554.362 45.7904L554.375 45.7647Z" fill="#68E1FD"/>
<path d="M483.724 210.879C483.026 216.896 483.566 223.002 485.332 228.813C485.556 229.52 485.965 230.162 486.532 230.664C487.415 231.127 488.417 231.319 489.418 231.217C496.035 231.037 502.652 231.371 509.216 232.219C513.118 232.746 516.98 233.415 520.855 233.981C523.293 234.34 525.732 234.649 528.038 234.816C535.683 235.382 543.368 234.739 550.789 232.914C551.593 232.772 552.344 232.464 553.016 232.014C553.873 231.332 554.532 230.432 554.914 229.417L570.243 198.757C573.104 193.293 575.608 187.65 577.743 181.878C579.8 175.977 581.039 169.832 581.434 163.61C581.658 159.933 581.579 156.244 581.184 152.58C581.566 149.302 579.193 146.332 575.832 145.908C575.503 145.882 575.186 145.882 574.857 145.908C571.258 145.535 567.686 144.893 564.193 144.006C560.648 143.119 557.616 140.882 555.797 137.796C553.504 133.464 554.94 128.155 556.997 123.707C558.223 120.609 560.252 117.883 562.902 115.801C564.536 114.708 566.737 113.178 565.973 111.443C565.709 110.954 565.314 110.543 564.826 110.247C558.46 105.889 551.988 108.538 546.887 112.934C540.916 117.793 533.126 119.953 525.429 118.912C521.039 118.359 522.99 114.155 523.109 110.942C519.523 111.919 515.978 113.088 512.485 114.348C509.163 115.415 506.066 117.022 503.311 119.105C500.952 121.303 498.948 123.835 497.353 126.599C495.6 129.286 493.887 131.986 492.476 134.763C479.559 158.262 484.449 185.169 483.737 210.879H483.724Z" fill="#68E1FD"/>
<path d="M520.855 233.903C523.293 234.263 525.732 234.546 528.038 234.739C535.683 235.292 543.368 234.636 550.789 232.811C551.579 232.669 552.331 232.361 553.016 231.924C553.873 231.229 554.519 230.317 554.914 229.301L570.244 198.641C573.13 193.139 575.661 187.47 577.809 181.659C579.866 175.797 581.105 169.678 581.5 163.494C578.89 161.579 575.766 160.448 572.511 160.203C567.726 159.715 563.007 158.712 558.447 157.208C556.72 156.617 543.117 151.757 543.117 149.88C542.195 156.257 548.561 161.168 554.057 164.806C555.771 165.705 557.155 167.094 558.038 168.778C558.578 170.552 558.578 172.455 558.038 174.229C555.125 187.354 551.5 200.325 547.203 213.09C546.202 216.973 544.317 220.598 541.681 223.683C536.237 229.275 527.406 229.751 520.855 233.903Z" fill="url(#paint4_linear_2583_2937)"/>
<path d="M592.901 219.66C593.982 222.539 595.643 225.175 597.778 227.424C600.006 229.713 603.38 230.522 606.438 229.52C607.295 229.16 608.059 228.62 608.679 227.951C610.788 224.93 611.776 221.305 611.46 217.667C611.367 199.04 608.916 180.489 604.131 162.453C602.892 157.697 601.956 149.238 597.079 146.525C594.773 145.895 592.374 145.703 590.001 145.934C583.872 146.153 575.937 147.387 575.766 149.341C573.367 173.599 582.607 197.433 592.875 219.673L592.901 219.66Z" fill="#68E1FD"/>
<path d="M601.784 218.734C602.852 221.627 604.513 224.262 606.661 226.499C607.268 227.064 607.953 227.553 608.691 227.951C610.8 224.93 611.789 221.305 611.472 217.667C611.38 199.04 608.929 180.489 604.144 162.453C602.905 157.697 601.969 149.238 597.092 146.525C594.785 145.895 592.387 145.703 590.014 145.934C586.956 146.551 584.794 147.361 584.663 148.312C582.25 172.673 591.503 196.507 601.771 218.734H601.784Z" fill="url(#paint5_linear_2583_2937)"/>
<path d="M574.422 113.423C580.221 116.354 584.479 121.547 586.14 127.705C588.288 133.85 587.576 140.586 584.215 146.178C579.18 153.274 569.637 155.794 561.61 152.156C560.279 151.5 559.026 150.703 557.88 149.778C550.683 143.44 548.679 133.207 553.003 124.735C557.418 116.122 563.113 108.332 574.435 113.423H574.422Z" fill="#68E1FD"/>
<path d="M574.422 113.423C580.221 116.354 584.479 121.547 586.14 127.705C588.288 133.85 587.576 140.586 584.215 146.178C579.18 153.274 569.637 155.794 561.61 152.156C560.279 151.5 559.026 150.703 557.88 149.778C550.683 143.44 548.679 133.207 553.003 124.735C557.418 116.122 563.113 108.332 574.435 113.423H574.422Z" fill="url(#paint6_linear_2583_2937)"/>
<path d="M574.83 158.262C571.745 157.401 569.254 155.19 568.068 152.284C565.616 148.196 563.758 143.813 562.532 139.236C561.306 134.595 562.097 129.672 564.707 125.622C567.686 122.203 571.508 119.58 575.818 117.999C579.021 116.302 582.514 115.21 586.126 114.785C593.613 114.785 600.308 119.31 602.945 126.137C605.383 132.911 605.383 140.29 602.945 147.065C600.506 153.763 597.646 160.319 594.403 166.683C592.914 170.012 586.324 163.7 585.493 163.057C582.211 160.949 578.626 159.329 574.843 158.249L574.83 158.262Z" fill="#68E1FD"/>
<path d="M594.246 224.429C596.908 223.851 599.663 223.748 602.378 224.095C605.067 224.48 607.479 225.895 609.087 228.028C609.944 229.314 610.405 230.805 610.432 232.335C610.498 233.711 609.891 235.035 608.797 235.909C607.993 236.359 607.084 236.603 606.161 236.603C603.064 236.796 600.006 235.845 597.593 233.942C595.181 231.975 594.127 228.826 594.878 225.843" fill="#68E1FD"/>
<path d="M409.043 131.248C408.899 131.551 408.898 131.948 408.837 132.289C408.289 139.671 409.775 147.056 413.116 153.696C417.677 164.507 423.676 174.683 430.964 183.955C436.303 190.766 444.599 198.297 453.881 193.88L454.66 193.497C463.391 188.802 458.899 180.007 454.815 173.554C444.731 157.564 428.941 146.027 417.93 130.821C416.586 128.948 414.732 126.743 412.419 127.138C410.561 127.739 409.238 129.351 409.032 131.242L409.043 131.248Z" fill="#68E1FD"/>
<path d="M410.164 131.992C410.019 132.295 410.018 132.692 409.957 133.033C409.409 140.415 410.896 147.8 414.236 154.44C418.797 165.252 424.796 175.427 432.085 184.699C437.423 191.51 445.719 199.042 455.001 194.625C457.742 189.744 454.295 183.325 451.147 178.29C441.098 162.288 425.32 150.786 414.119 135.521C413.226 133.952 411.841 132.712 410.152 131.987L410.164 131.992Z" fill="url(#paint7_linear_2583_2937)"/>
<path d="M413.445 112.626C412.522 107.06 410.664 100.979 405.708 98.1251C405.141 97.8422 404.456 98.0479 404.166 98.6007C404.126 98.665 404.1 98.7421 404.073 98.8192C403.889 99.462 403.968 100.156 404.271 100.748C404.983 102.676 406.222 104.321 407.052 106.198C408.054 107.998 408.107 110.158 407.197 112.009C400.396 108.204 395.282 102.072 392.843 94.7955C392.606 93.8314 392.171 92.9186 391.578 92.1087C390.919 91.3503 389.851 91.0803 388.889 91.4145C389.522 97.8037 391.169 104.051 393.766 109.939L383.366 96.441C383.472 102.509 385.357 108.422 388.81 113.462C385.567 110.248 382.602 106.79 379.926 103.1C378.7 109.605 383.366 115.57 387.742 120.622C385.37 118.269 382.628 116.303 379.61 114.786C385.08 125.854 397.602 132.526 409.346 135.521C414.565 136.884 419.521 136.383 418.282 130.212C417.043 124.042 414.447 118.591 413.445 112.613V112.626Z" fill="#68E1FD"/>
<path d="M555.575 254.639C556.089 258.007 554.468 261.35 551.449 263.072C541.168 270.837 527.526 274.976 520.197 285.402C518.892 287.78 517.113 289.889 514.978 291.598C512.447 292.82 509.626 293.334 506.819 293.077C503.814 293.424 500.808 292.563 498.475 290.699C497.605 289.683 496.959 288.513 496.577 287.24C490.883 272.56 487.706 257.069 487.153 241.385C487.153 237.979 487.469 233.903 490.54 232.412C492.254 231.718 494.139 231.525 495.958 231.847L537.161 235.138C542.038 235.536 548.853 234.572 552.095 238.133C555.338 241.707 555.562 250.603 555.562 254.652L555.575 254.639Z" fill="#68E1FD"/>
<path d="M528.725 238.994C530.347 241.141 532.086 243.236 533.919 245.28C525.153 247.427 519.275 255.5 515.531 263.496C511.669 271.145 509.573 279.527 509.376 288.037C509.336 288.577 509.428 289.117 509.639 289.606C510.298 290.596 511.577 291.007 512.711 290.609C513.818 290.197 514.793 289.529 515.597 288.68C524.876 280.209 534.907 272.547 545.57 265.798C547.297 264.821 548.892 263.638 550.329 262.275C551.937 260.578 553.097 258.534 553.703 256.297C555.192 251.387 554.507 242.516 549.353 239.637C544.2 236.757 534.143 238.994 528.699 238.994H528.725Z" fill="url(#paint8_linear_2583_2937)"/>
<path d="M549.101 258.56C549.101 258.56 572.141 298.81 578.758 343.29C585.362 387.77 588.723 408.647 588.723 408.647L554.373 411.475L555.665 391.125C555.665 391.125 521.5 282.587 520.327 276.828C519.154 271.068 546.755 254.048 549.101 258.56Z" fill="#68E1FD"/>
<path d="M549.101 258.56C549.101 258.56 572.141 298.81 578.758 343.29C585.362 387.77 588.723 408.647 588.723 408.647L554.373 411.475L555.665 391.125C555.665 391.125 521.5 282.587 520.327 276.828C519.154 271.068 546.755 254.048 549.101 258.56Z" fill="url(#paint9_linear_2583_2937)"/>
<path d="M515.056 60.9084C516.743 60.5613 518.496 61.0369 519.762 62.1682C520.342 63.2223 520.5 64.4436 520.197 65.6006C520.131 66.9375 519.973 68.2616 519.709 69.5729C519.67 69.8429 519.564 70.1 519.419 70.3314C519.142 70.6013 518.786 70.7556 518.391 70.7813C510.931 72.2083 503.312 72.6839 495.733 72.1825C495.153 72.2083 494.586 72.054 494.099 71.7583C493.585 71.2055 493.308 70.4985 493.321 69.7529C493.123 67.0789 493.123 64.3793 493.321 61.7054C493.321 59.8285 495.035 60.6127 496.379 60.7541C498.435 60.9983 500.557 61.0112 502.508 61.0883C506.713 61.1141 511.01 61.0883 515.056 60.8955V60.9084Z" fill="url(#paint10_linear_2583_2937)"/>
<path d="M547.66 262.007C565.153 254.678 584.926 253.222 602.128 244.873C609.121 241.503 617.751 236.377 612.921 227.874L612.79 227.819C607.438 218.648 596.064 220.735 587.632 223.843C576.442 227.986 565.867 233.525 556.13 240.304C549.706 244.228 544.452 249.74 540.909 256.275C540.116 258.331 539.678 260.939 541.358 262.386C543.117 263.898 545.841 262.972 547.676 262.017L547.66 262.007Z" fill="#68E1FD"/>
<path d="M546.371 262.275C564.015 254.672 583.646 253.463 600.876 245.122C605.743 242.653 611.609 239.268 612.705 234.524C607.353 225.354 595.979 227.441 587.547 230.548C576.357 234.692 565.781 240.231 556.045 247.009C549.593 250.926 544.3 256.444 540.731 262.984C542.644 263.425 544.646 263.172 546.382 262.26L546.371 262.275Z" fill="url(#paint11_linear_2583_2937)"/>
<path d="M163.602 280.865C163.602 280.865 139.243 128.965 133.043 117.447C126.843 105.929 106.47 104.489 67.3495 109.096C53.0298 110.824 42.9912 113.847 36.0528 116.871C26.7524 121.046 21.5855 130.693 23.357 140.484L50.8154 291.519L163.602 280.865Z" fill="#231F20"/>
<path d="M50.8153 292.671C50.2248 292.671 49.7819 292.239 49.7819 291.807L22.3235 140.628C20.552 130.405 26.0141 120.327 35.6098 115.863C44.0245 112.12 54.6535 109.384 67.2017 107.944C109.127 103.049 127.876 105.497 134.076 116.871C140.276 128.245 163.601 274.386 164.635 280.577C164.782 281.153 164.34 281.729 163.749 281.873C163.749 281.873 163.749 281.873 163.601 281.873L50.8153 292.671ZM100.86 107.8C89.6408 107.944 78.5689 108.808 67.3494 110.248C54.9488 111.688 44.4674 114.279 36.3479 118.023C27.638 121.91 22.6187 131.125 24.3903 140.34L51.701 290.367L162.273 279.857C160.058 265.891 137.914 128.677 132.009 118.023C127.876 110.536 116.952 107.8 100.86 107.8Z" fill="#231F20"/>
<path d="M82.1123 292.671C81.5218 292.671 81.0789 292.239 81.0789 291.807L53.6205 140.772C52.2918 136.308 53.03 131.557 55.5396 127.669C59.0826 122.342 65.8734 119.175 75.912 118.023C76.5025 117.879 77.093 118.311 77.093 118.887C77.093 119.463 76.7977 120.039 76.2072 120.039C66.9068 121.046 60.5589 123.926 57.4587 128.677C55.392 132.133 54.8015 136.164 55.8349 140.052V140.196L83.4409 291.231C83.5885 291.807 83.1456 292.383 82.5551 292.527L82.1123 292.671Z" fill="white"/>
<path d="M288.493 149.842C288.493 149.842 301.189 99.8813 303.403 102.041C305.618 104.201 306.356 112.84 303.699 119.607C303.699 119.607 321.414 93.4022 325.104 96.5697C328.795 99.7373 336.914 106.936 335.733 113.127C334.552 119.319 315.952 149.123 315.952 149.123L310.785 160.497L288.493 149.842Z" fill="white"/>
<path d="M310.932 161.649C310.784 161.649 310.637 161.649 310.489 161.505L288.05 150.85C287.607 150.562 287.312 150.13 287.459 149.554C287.459 149.41 290.559 137.604 293.807 125.942C300.598 101.609 302.074 101.321 302.96 101.033C303.403 100.889 303.846 101.033 304.289 101.321C306.355 103.337 307.094 108.808 306.355 114.279C311.375 107.224 320.085 95.9937 324.071 95.4178C324.809 95.2738 325.399 95.5618 325.99 95.9938C329.68 99.1613 338.243 106.792 337.062 113.559C335.881 119.751 317.87 148.691 317.132 149.842L312.113 161.073C311.67 161.505 311.375 161.793 310.932 161.649ZM289.821 149.267L310.489 159.201L315.213 148.835C320.527 140.484 334.109 117.879 334.995 113.127C336.028 107.512 328.056 100.601 324.661 97.5775C322.742 97.0016 313.737 107.368 305.027 120.326C304.732 120.758 304.141 120.902 303.551 120.758C303.108 120.47 302.812 119.894 302.96 119.463C305.174 113.703 304.732 106.648 303.403 103.913C300.893 108.376 294.841 129.685 289.821 149.267Z" fill="#231F20"/>
<path d="M196.818 122.486L255.72 192.173L289.231 141.204L318.757 159.921C318.757 159.921 289.969 245.589 265.316 246.885C240.662 248.181 192.241 196.636 192.241 196.636L196.818 122.486Z" fill="#68E1FD"/>
<path d="M134.962 104.921C134.962 104.921 76.3548 117.303 71.7784 138.612C67.202 159.921 91.8555 301.886 91.8555 319.739L223.538 317.148C223.538 317.148 206.118 187.277 204.789 165.968C203.461 144.659 200.213 125.798 196.817 122.486C193.422 119.175 145.591 96.7137 134.962 104.921Z" fill="#68E1FD"/>
<path d="M128.614 117.015C129.648 120.182 175.559 224.136 175.559 224.136L166.997 129.541L128.614 117.015Z" fill="#231F20"/>
<path d="M175.56 225.288C175.117 225.288 174.674 225 174.526 224.568C172.607 220.393 128.615 120.47 127.581 117.303C127.434 116.871 127.581 116.439 127.877 116.151C128.172 115.863 128.615 115.719 129.058 115.863L167.44 128.389C167.883 128.533 168.178 128.965 168.178 129.253L176.741 223.848C176.741 224.424 176.445 224.856 175.855 225C175.707 225.288 175.56 225.288 175.56 225.288ZM130.534 118.743C135.258 130.117 158.878 183.822 173.788 217.513L165.964 130.405L130.534 118.743Z" fill="#231F20"/>
<path d="M112.671 56.6871C110.014 39.5535 119.462 23.2837 131.419 28.323C135.553 11.0453 212.318 1.39866 201.837 45.1687C200.36 49.6321 197.26 54.9594 192.832 57.1191C187.96 59.5667 182.35 58.9908 177.921 62.7343C173.197 66.7658 169.654 72.9569 165.226 77.4203C158.287 84.7633 149.725 90.2346 139.982 93.5461C136.439 94.6979 135.405 96.4257 132.305 98.0095C130.829 98.7294 129.205 99.1614 127.581 99.5933C127.729 99.5933 112.376 68.9255 112.671 56.6871Z" fill="#231F20"/>
<path d="M188.698 43.153C193.422 48.6242 195.636 53.9515 191.65 66.9097C191.503 69.7893 198.737 78.7161 198.441 81.7397C198.294 83.4675 191.208 82.7476 191.06 84.4753C190.469 91.0984 190.469 94.9859 189.731 101.609C188.846 108.808 169.802 107.944 166.554 105.64L166.997 129.541C166.997 129.541 161.682 142.499 146.772 134.725C131.862 126.95 128.614 117.159 128.614 117.159L134.372 87.067C134.372 87.067 148.396 87.9309 156.663 73.6768C167.883 58.2709 166.702 44.1608 166.702 44.1608C166.702 44.1608 180.136 41.8571 187.074 48.0483L188.698 43.153Z" fill="white"/>
<path d="M155.63 138.18C152.235 138.036 148.987 137.172 146.182 135.588C130.829 127.669 127.729 117.735 127.581 117.303C127.581 117.159 127.581 117.015 127.581 116.727L133.338 86.779C133.486 86.2031 133.929 85.9151 134.519 85.9151C135.11 85.9151 147.953 86.491 155.778 72.9569C166.85 57.8389 165.668 44.1608 165.668 44.0168C165.668 43.4409 165.964 43.0089 166.554 42.8649C167.145 42.721 179.102 40.8492 186.484 46.0325L187.517 42.721C187.665 42.289 187.96 42.0011 188.403 42.0011C188.846 41.8571 189.141 42.0011 189.436 42.289C194.603 48.1922 196.67 53.8075 192.684 67.0537C192.684 68.2055 194.456 71.2291 195.932 73.6768C198.294 77.5642 199.622 80.0119 199.475 81.7397C199.327 83.4674 197.113 83.7554 194.898 84.1873C194.013 84.3313 192.979 84.4753 192.094 84.7633C191.946 87.3549 191.798 89.6586 191.651 91.6743C191.503 94.8419 191.355 97.7215 190.765 101.753C190.617 103.193 189.732 105.208 186.336 106.648C181.022 108.952 171.869 108.664 167.588 107.224L168.031 129.397C168.031 129.541 168.031 129.685 167.883 129.829C166.407 133.285 163.454 136.02 159.911 137.316C158.73 138.036 157.254 138.324 155.63 138.18ZM129.795 116.871C130.386 118.311 134.077 126.806 147.215 133.573C151.792 136.02 155.925 136.596 159.321 135.3C162.273 134.149 164.635 131.989 165.816 129.109L165.373 105.352C165.373 104.777 165.816 104.345 166.407 104.201C166.702 104.201 166.85 104.201 167.145 104.489C169.212 105.928 179.841 106.936 185.45 104.489C187.37 103.625 188.403 102.617 188.55 101.321C188.993 97.4335 189.141 94.5539 189.289 91.3863C189.436 89.2266 189.584 86.9229 189.732 84.1873C189.879 82.4596 192.094 82.1716 194.308 81.7397C195.194 81.5957 196.227 81.4517 197.113 81.1637C196.965 79.8679 195.194 76.9883 193.865 74.5406C191.503 70.6532 190.174 68.2055 190.322 66.6217C190.322 66.4777 190.322 66.4777 190.322 66.3338C193.717 55.1033 192.684 49.92 188.846 45.0246L187.96 47.9043C187.812 48.1922 187.517 48.4802 187.222 48.6242C186.927 48.7681 186.484 48.6242 186.188 48.3362C180.874 43.5849 170.835 44.1608 167.735 44.5927C167.883 48.1922 167.292 60.4306 157.401 73.8207C150.02 86.347 138.505 87.6429 135.11 87.6429L129.795 116.871Z" fill="#231F20"/>
<path d="M190.027 96.2817C190.027 96.2817 182.055 97.4336 181.612 89.9466L190.47 89.5146L190.027 96.2817Z" fill="white"/>
<path d="M188.994 97.4336C186.927 97.4336 184.86 96.8577 183.236 95.7059C181.612 94.2661 180.579 92.2503 180.579 90.0906C180.579 89.8027 180.727 89.5147 180.874 89.2267C181.022 89.0828 181.317 88.9388 181.612 88.9388L190.47 88.5068C190.765 88.5068 191.061 88.6508 191.356 88.7948C191.503 89.0828 191.651 89.3707 191.651 89.6587L191.061 96.4258C191.061 96.8577 190.618 97.2897 190.175 97.4336C189.732 97.2897 189.289 97.4336 188.994 97.4336ZM182.941 90.9545C183.089 92.1064 183.679 93.1142 184.565 93.9781C185.894 94.842 187.37 95.2739 188.994 95.2739L189.289 90.6665L182.941 90.9545Z" fill="#231F20"/>
<path d="M164.192 63.1663C149.872 43.5849 133.191 65.6139 156.515 81.4518L164.192 63.1663Z" fill="white"/>
<path d="M156.515 82.6037C156.22 82.6037 156.072 82.6037 155.925 82.4597C145.443 75.4046 142.934 67.1977 144.115 61.8705C144.558 58.4149 147.215 55.5353 150.758 54.6714C155.482 53.6636 160.796 56.5432 165.225 62.5904C165.668 63.0223 165.52 63.7422 165.078 64.1742C164.635 64.6061 163.896 64.4621 163.454 64.0302C163.454 64.0302 163.454 63.8862 163.306 63.8862C159.468 58.5589 155.039 55.9673 151.201 56.8312C148.543 57.5511 146.624 59.7108 146.181 62.3024C145.296 66.9098 147.658 74.2528 157.106 80.7319C157.549 81.0199 157.696 81.7398 157.401 82.1717C157.253 82.3157 156.958 82.4597 156.515 82.6037Z" fill="#231F20"/>
<path d="M166.702 105.641C166.702 105.641 156.958 102.041 152.677 95.2739C152.677 95.2739 152.382 112.696 167.292 118.455L166.702 105.641Z" fill="#231F20"/>
<path d="M167.292 119.463C167.144 119.463 166.997 119.463 166.849 119.463C151.349 113.415 151.496 95.4178 151.496 95.2738C151.496 94.8419 151.791 94.4099 152.382 94.266C152.825 94.122 153.415 94.4099 153.563 94.6979C157.549 101.177 166.849 104.633 166.997 104.633C167.44 104.777 167.735 105.208 167.735 105.64L168.325 118.455C168.325 118.887 168.178 119.175 167.883 119.319C167.735 119.463 167.44 119.463 167.292 119.463ZM154.006 98.7294C154.744 103.625 157.254 112.407 165.963 116.583L165.521 106.216C161.239 104.489 157.401 102.041 154.006 98.7294Z" fill="#231F20"/>
<path d="M187.221 62.9722C187.374 60.671 186.706 58.7555 185.73 58.6938C184.754 58.632 183.838 60.4474 183.685 62.7486C183.532 65.0498 184.2 66.9653 185.176 67.0271C186.152 67.0888 187.068 65.2734 187.221 62.9722Z" fill="#231F20"/>
<path d="M212.465 238.534C211.875 238.534 211.432 238.103 211.432 237.671L203.46 176.479C203.313 175.903 203.756 175.327 204.346 175.327C204.937 175.183 205.527 175.615 205.527 176.335L213.499 237.527C213.646 238.102 213.204 238.678 212.613 238.678C212.613 238.678 212.465 238.678 212.465 238.534Z" fill="#231F20"/>
<path d="M1.36035 322.907H630.099L587.139 274.817H44.4671L1.36035 322.907Z" fill="white"/>
<path d="M246.813 314.7L171.247 311.244C170.967 311.244 170.686 311.1 170.405 310.812C170.264 310.524 170.124 310.237 170.264 309.949L171.528 304.189C171.669 303.757 171.95 303.469 172.371 303.325L305.244 280.433C305.665 280.289 306.227 280.577 306.367 281.009L307.772 284.32C308.053 284.896 307.772 285.472 307.21 285.76L247.235 314.556C247.094 314.7 246.954 314.7 246.813 314.7ZM172.512 309.229L246.532 312.54L305.384 284.464L304.682 282.88L173.354 305.485L172.512 309.229Z" fill="#231F20"/>
<path d="M634 322.67H1.31836V343.239H634V322.67Z" fill="white"/>
<path d="M247.655 307.501L172.511 304.477L234.733 279.569L305.383 281.728L247.655 307.501Z" fill="white"/>
<path d="M247.655 308.509L172.511 305.629C171.949 305.629 171.527 305.197 171.527 304.621C171.527 304.189 171.808 303.757 172.23 303.613L234.312 278.705C234.452 278.705 234.593 278.561 234.733 278.705L305.383 280.721C305.945 280.721 306.366 281.153 306.507 281.728C306.507 282.16 306.226 282.592 305.804 282.736L248.217 308.509C248.076 308.509 247.796 308.509 247.655 308.509ZM177.567 303.613L247.515 306.349L300.607 282.592L234.874 280.721L177.567 303.613Z" fill="#231F20"/>
<path d="M247.655 307.501L255.38 219.673L317.603 194.764L305.383 281.728L247.655 307.501Z" fill="white"/>
<path d="M247.656 308.509C247.375 308.509 247.235 308.509 247.094 308.365C246.813 308.077 246.673 307.789 246.673 307.357L254.398 219.673C254.398 219.241 254.679 218.953 255.1 218.809L317.182 193.756C317.463 193.612 317.885 193.612 318.166 193.9C318.446 194.188 318.587 194.476 318.587 194.908L306.367 281.728C306.367 282.16 306.086 282.448 305.805 282.592L248.218 308.365C247.937 308.509 247.797 308.509 247.656 308.509ZM256.364 220.537L248.92 305.773L304.401 281.009L316.34 196.492L256.364 220.537Z" fill="#231F20"/>
<path d="M632.797 339.897H11.7725V461.992H632.797V339.897Z" fill="white"/>
<path d="M632.795 463H11.7708C11.1686 463 10.717 462.568 10.5664 461.848V339.753C10.5664 339.177 11.0181 338.601 11.7708 338.601H632.795C633.398 338.601 634 339.033 634 339.753V461.848C634 462.424 633.398 463 632.795 463ZM12.8247 460.84H631.591V340.905H12.8247V460.84Z" fill="#231F20"/>
<path d="M632.864 323.956H1.18653C0.593263 323.956 0 323.524 0 322.949C0 322.661 0.148317 322.373 0.296633 322.229L43.6049 274.164C43.7532 273.876 44.1982 273.732 44.4948 273.876H589.704C590.001 273.876 590.298 274.02 590.594 274.164L633.754 322.229C634.051 322.517 634.051 322.949 633.903 323.38C633.754 323.812 633.309 323.956 632.864 323.956ZM3.55959 321.797H630.491L589.259 275.891H44.9397L3.55959 321.797Z" fill="#231F20"/>
<path d="M632.815 343.239H1.18449C0.592245 343.239 0.148062 342.808 0 342.089V322.535C0 321.96 0.444184 321.529 1.18449 321.385H632.815C633.408 321.385 634 321.816 634 322.535V342.089C634 342.808 633.556 343.239 632.815 343.239ZM2.36898 341.082H631.779V323.685H2.36898V341.082Z" fill="#231F20"/>
<path opacity="0.18" d="M424.424 70.0619V110.556L418.493 115.699C412.033 115.699 424.424 100.336 424.424 110.556L418.493 189.617L413.767 280.41C414.54 284.731 398.009 293.382 369.944 292.907C329.051 292.231 327.81 280.41 327.81 280.41L307.773 72.633L424.424 70.0619Z" fill="#68E3FD"/>
<path opacity="0.18" d="M403.568 284.683L421.129 75.2041L317.932 83.4495L340.179 285.335C340.179 285.335 328.587 296.504 369.48 297.189C397.531 297.655 404.352 289.012 403.568 284.691V284.683Z" fill="#68E3FD"/>
<path d="M367.986 314.957C395.084 314.957 417.052 305.334 417.052 293.463C417.052 281.591 395.084 271.968 367.986 271.968C340.887 271.968 318.919 281.591 318.919 293.463C318.919 305.334 340.887 314.957 367.986 314.957Z" fill="#969696"/>
<path d="M370.316 297.293C394.05 297.293 413.29 291.647 413.29 284.683C413.29 277.718 394.05 272.073 370.316 272.073C346.583 272.073 327.343 277.718 327.343 284.683C327.343 291.647 346.583 297.293 370.316 297.293Z" fill="url(#paint12_linear_2583_2937)"/>
<path d="M369.969 292.907V259.197H351.791V222.951" stroke="#787878" stroke-width="1.71" stroke-miterlimit="10"/>
<path d="M352.062 222.951C353.508 222.951 354.681 221.096 354.681 218.807C354.681 216.518 353.508 214.662 352.062 214.662C350.615 214.662 349.442 216.518 349.442 218.807C349.442 221.096 350.615 222.951 352.062 222.951Z" stroke="#787878" stroke-width="1.71" stroke-miterlimit="10"/>
<path d="M333.09 246.506C334.537 246.506 335.71 244.65 335.71 242.362C335.71 240.073 334.537 238.217 333.09 238.217C331.643 238.217 330.471 240.073 330.471 242.362C330.471 244.65 331.643 246.506 333.09 246.506Z" stroke="#787878" stroke-width="1.71" stroke-miterlimit="10"/>
<path d="M360.737 226.058C362.183 226.058 363.356 224.202 363.356 221.913C363.356 219.624 362.183 217.769 360.737 217.769C359.29 217.769 358.117 219.624 358.117 221.913C358.117 224.202 359.29 226.058 360.737 226.058Z" stroke="#787878" stroke-width="1.71" stroke-miterlimit="10"/>
<path d="M368.428 208.723C369.875 208.723 371.047 206.868 371.047 204.579C371.047 202.29 369.875 200.435 368.428 200.435C366.981 200.435 365.809 202.29 365.809 204.579C365.809 206.868 366.981 208.723 368.428 208.723Z" stroke="#787878" stroke-width="1.71" stroke-miterlimit="10"/>
<path d="M389.526 212.602C390.972 212.602 392.145 210.747 392.145 208.458C392.145 206.169 390.972 204.313 389.526 204.313C388.079 204.313 386.906 206.169 386.906 208.458C386.906 210.747 388.079 212.602 389.526 212.602Z" stroke="#787878" stroke-width="1.71" stroke-miterlimit="10"/>
<path d="M406.814 224.078C408.26 224.078 409.433 222.222 409.433 219.933C409.433 217.645 408.26 215.789 406.814 215.789C405.367 215.789 404.194 217.645 404.194 219.933C404.194 222.222 405.367 224.078 406.814 224.078Z" stroke="#787878" stroke-width="1.71" stroke-miterlimit="10"/>
<path d="M396.398 274.374C397.844 274.374 399.017 272.519 399.017 270.23C399.017 267.941 397.844 266.085 396.398 266.085C394.951 266.085 393.778 267.941 393.778 270.23C393.778 272.519 394.951 274.374 396.398 274.374Z" stroke="#787878" stroke-width="1.71" stroke-miterlimit="10"/>
<path d="M351.791 238.491H360.789V225.285" stroke="#787878" stroke-width="1.71" stroke-miterlimit="10"/>
<path d="M370.442 264.629H381.072V251.942V239.255H368.479V208.723" stroke="#787878" stroke-width="1.71" stroke-miterlimit="10"/>
<path d="M389.581 212.594V249.612H381.234" stroke="#787878" stroke-width="1.71" stroke-miterlimit="10"/>
<path d="M369.46 274.978H341.817V243.4H335.434" stroke="#787878" stroke-width="1.71" stroke-miterlimit="10"/>
<path d="M389.688 236.849H396.453V266.351" stroke="#787878" stroke-width="1.71" stroke-miterlimit="10"/>
<path d="M396.453 251.68H401.117V220.625H404.8" stroke="#787878" stroke-width="1.71" stroke-miterlimit="10"/>
<path d="M548.556 260.902C550.282 255.569 546.123 254.498 541.424 255.245C530.993 256.63 519.457 261.191 513.547 270.393C516.305 269.395 518.879 267.951 521.175 266.115C516.819 270.131 512.268 275.019 512.511 280.821C515.225 277.862 518.162 275.109 521.303 272.588C517.748 276.719 515.464 281.79 514.728 287.193L525.172 276.306C522.28 281.228 520.158 286.562 518.904 292.126C519.693 292.639 520.742 292.512 521.39 291.828C522.005 291.16 522.473 290.379 522.763 289.513C525.677 283.26 530.823 278.313 537.197 275.641C537.762 277.393 537.469 279.295 536.42 280.807C535.334 282.244 534.342 283.747 533.427 285.293C533.098 285.805 532.972 286.409 533.078 287.008C533.247 287.572 533.84 287.898 534.406 287.74C538.999 285.731 541.214 280.532 542.673 275.735C544.211 270.458 546.844 266.245 548.571 260.923L548.556 260.902Z" fill="#68E1FD"/>
<path d="M197.111 271.506C197.111 271.506 223.389 255.38 229.737 256.244C234.608 256.964 238.889 261.715 242.137 264.883C246.418 269.058 249.814 272.946 250.699 278.993C251.29 281.873 250.699 284.896 248.928 287.344C246.123 290.655 242.137 289.647 239.48 287.056C235.937 283.6 233.575 282.736 230.032 283.6C220.584 288.64 198.145 288.784 198.145 288.784L197.111 271.506Z" fill="white"/>
<path d="M244.647 290.367C242.285 290.223 240.218 289.36 238.594 287.632C235.347 284.464 233.427 283.6 230.327 284.464C220.732 289.647 198.883 289.791 197.997 289.791C197.407 289.791 196.964 289.36 196.964 288.784L196.078 271.65C196.078 271.218 196.226 270.93 196.521 270.642C199.326 268.914 223.241 254.228 229.884 255.092C234.608 255.812 238.594 259.7 241.694 262.867L242.875 264.019C247.009 268.05 250.847 272.226 251.733 278.705C252.324 281.873 251.733 285.184 249.814 287.776C248.633 289.216 246.861 290.079 245.09 290.223L244.647 290.367ZM232.246 282.016C234.904 282.016 237.118 283.312 240.071 286.192C241.252 287.488 243.023 288.208 244.795 288.352C245.976 288.208 247.157 287.632 247.895 286.624C249.814 284.32 249.666 281.009 249.371 279.137C248.485 273.234 245.09 269.634 241.104 265.747L239.923 264.451C236.97 261.427 233.28 257.828 229.294 257.252C225.013 256.676 208.479 265.603 197.997 272.082L198.883 287.488C203.459 287.344 221.322 286.768 229.294 282.448C229.442 282.448 229.442 282.304 229.589 282.304C230.475 282.16 231.361 282.016 232.246 282.016Z" fill="#231F20"/>
<path d="M120.494 137.748C123.299 154.018 115.327 227.736 121.823 236.519C128.318 245.302 207.889 261.715 207.889 261.715L201.393 296.415C201.393 296.415 108.389 291.951 83.8829 279.425C59.377 266.899 62.6248 181.23 64.5439 158.049C70.5966 103.193 117.689 121.622 120.494 137.748Z" fill="#68E1FD"/>
<path d="M201.393 297.566C197.555 297.422 107.798 292.959 83.4399 280.433C72.6633 274.817 65.8725 255.524 63.3628 222.841C61.8866 201.243 61.8866 179.646 63.5105 158.049C63.5105 157.473 64.101 157.042 64.6915 157.042C65.282 157.042 65.7248 157.617 65.7248 158.193C64.2486 179.646 64.101 201.243 65.5772 222.697C68.0869 254.084 74.5824 273.378 84.4733 278.561C107.06 290.079 190.616 294.831 200.507 295.407L206.56 262.579C194.602 260.131 127.285 245.733 120.937 237.239C116.803 231.767 117.984 204.843 119.018 178.783C119.313 171.728 119.608 164.96 119.756 158.913C119.756 158.337 120.346 157.905 120.937 157.905C121.527 157.905 121.97 158.481 121.97 159.057C121.823 165.104 121.527 171.871 121.232 178.927C120.199 202.251 119.018 231.191 122.708 235.943C127.875 242.854 186.04 256.1 208.036 260.707C208.627 260.851 208.922 261.427 208.922 262.003L202.426 296.702C202.574 297.278 201.983 297.566 201.393 297.566Z" fill="#231F20"/>
<path d="M190.384 166.613C193.828 165.146 195.32 161.401 193.717 158.248C192.114 155.095 188.022 153.729 184.578 155.196C181.134 156.664 179.641 160.409 181.245 163.562C182.848 166.715 186.939 168.081 190.384 166.613Z" fill="#231F20"/>
<path d="M190.348 167.786C185.963 169.655 181.071 168.194 179.166 164.448C177.261 160.702 179.19 156.335 183.575 154.467C187.96 152.598 192.852 154.059 194.757 157.805C196.591 161.413 194.57 165.987 190.348 167.786ZM184.492 156.27C181.406 157.585 179.937 160.912 181.277 163.548C182.618 166.184 186.345 167.297 189.431 165.983C192.516 164.668 193.986 161.341 192.645 158.705C191.305 156.068 187.578 154.956 184.492 156.27Z" fill="#231F20"/>
<path d="M192.534 163.382C189.104 164.844 184.991 163.471 183.395 160.331C181.798 157.191 183.299 153.427 186.729 151.965C190.159 150.504 194.271 151.877 195.868 155.017C197.464 158.156 196.12 161.854 192.534 163.382ZM187.744 153.963C185.406 154.96 184.562 157.403 185.578 159.401C186.666 161.542 189.335 162.314 191.518 161.384C193.857 160.388 194.701 157.945 193.685 155.947C192.825 153.882 190.083 152.967 187.744 153.963Z" fill="#231F20"/>
<path d="M119.598 147.041C118.861 147.183 118.132 146.611 118 146.101C117.744 144.367 112.087 103.183 131.527 95.3251C132.219 95.0129 132.905 95.4157 133.221 95.8897C133.538 96.3637 133.161 97.1499 132.652 97.4266C114.968 104.589 120.351 145.468 120.44 145.808C120.572 146.318 120.151 146.934 119.598 147.041Z" fill="#231F20"/>
<path d="M187.882 158.419C187.119 158.744 186.357 158.339 186.204 157.675C171.726 118.979 159.068 106.865 158.839 106.78C158.229 106.31 158.229 105.581 158.687 105.021C159.145 104.461 159.908 104.501 160.518 104.97C160.518 104.97 160.518 104.97 160.595 105.12C161.052 105.655 173.863 117.704 188.493 157.064C188.875 157.449 188.493 158.159 187.882 158.419Z" fill="#231F20"/>
<path d="M144.135 190.597C143.397 190.74 142.528 190.375 142.309 189.53C142.09 188.684 142.511 188.07 143.433 187.892C145.83 187.429 147.375 185.178 146.805 182.98L140.443 158.467C138.382 150.521 129.709 145.451 121 146.955L118.05 147.525C109.385 149.199 104.047 156.977 106.152 165.091L112.514 189.605C113.084 191.802 115.594 193.27 117.991 192.807C118.729 192.665 119.598 193.029 119.817 193.875C120.036 194.72 119.615 195.334 118.693 195.512C114.821 196.26 110.757 194.027 109.792 190.308L103.431 165.795C101.018 156.497 107.34 147.286 117.436 145.158L120.386 144.589C130.526 142.63 140.796 148.635 143.253 158.102L149.614 182.615C150.395 186.37 148.006 189.849 144.135 190.597Z" fill="#231F20"/>
<path d="M121.536 199.563C119.926 199.874 118.263 199.162 117.922 197.85L116.646 192.932C116.104 191.659 117.014 190.278 118.58 189.803C120.147 189.328 121.811 190.04 122.352 191.313C122.395 191.477 122.437 191.641 122.437 191.641L123.714 196.559C124.097 198.035 123.145 199.252 121.536 199.563ZM119.578 192.021C119.377 192.06 119.377 192.06 119.42 192.224L120.696 197.142C120.739 197.306 121.342 197.19 121.3 197.026L120.023 192.107C119.78 191.982 119.78 191.982 119.578 192.021Z" fill="#231F20"/>
<path d="M144.345 195.157C143.062 195.404 141.684 194.638 141.344 193.326L140.067 188.407C139.566 187.127 140.231 185.793 141.472 185.381C142.713 184.969 144.091 185.736 144.592 187.017C144.634 187.181 144.677 187.345 144.677 187.345L145.953 192.263C146.496 193.708 145.629 194.909 144.345 195.157ZM142.388 187.615C142.228 187.646 142.27 187.81 142.27 187.81L143.547 192.728C143.589 192.892 144.071 192.799 144.028 192.635L142.752 187.717C142.549 187.584 142.549 187.584 142.388 187.615Z" fill="#231F20"/>
<path d="M192.468 163.41L192.315 163.476C189.179 164.294 186.83 164.086 185.195 162.71C182.441 160.603 182.851 156.63 182.933 156.423C183.024 155.866 183.72 155.397 184.325 155.484C184.93 155.572 185.373 156.074 185.282 156.63C185.091 158.093 185.577 159.785 186.688 160.866C187.654 161.663 189.325 161.641 191.467 161.074C192.154 160.954 192.832 161.184 193.039 161.959C193.327 162.526 193.083 163.148 192.468 163.41Z" fill="white"/>
<path d="M119.496 191.407C120.243 191.203 121.13 191.512 121.269 192.024L122.348 195.99C122.488 196.502 121.879 197.217 121.131 197.421C120.383 197.624 119.497 197.316 119.357 196.804L118.278 192.837C118.139 192.325 118.561 191.661 119.496 191.407Z" fill="#231F20"/>
<path d="M142.496 187.407C143.243 187.203 144.13 187.512 144.269 188.024L145.348 191.99C145.488 192.502 144.879 193.217 144.131 193.421C143.383 193.624 142.497 193.316 142.357 192.804L141.278 188.837C141.139 188.325 141.561 187.661 142.496 187.407Z" fill="#231F20"/>
<path d="M192.481 159.743C194.62 158.831 195.547 156.505 194.551 154.546C193.556 152.588 191.014 151.739 188.874 152.651C186.734 153.562 185.807 155.889 186.803 157.847C187.799 159.806 190.341 160.655 192.481 159.743Z" fill="#231F20"/>
<path d="M365.593 122.833C396.434 122.833 421.436 97.4111 421.436 66.0517C421.436 34.6924 396.434 9.27057 365.593 9.27057C334.753 9.27057 309.751 34.6924 309.751 66.0517C309.751 97.4111 334.753 122.833 365.593 122.833Z" fill="#231F20"/>
<path d="M346.696 29.8709C345.502 29.5561 344.239 29.3829 342.933 29.3829C335.502 29.3829 329.476 34.8772 329.476 41.6571C329.476 43.541 329.942 45.3226 330.773 46.9179C327.396 49.1481 325.195 52.7716 325.195 56.8648C325.195 60.3623 326.803 63.5162 329.375 65.7516C326.8 67.9871 325.195 71.141 325.195 74.6385C325.195 80.1564 329.188 84.8242 334.683 86.3696C334.355 87.4323 334.173 88.55 334.173 89.7097C334.173 96.4871 340.197 101.984 347.631 101.984C347.783 101.984 347.933 101.979 348.085 101.973C347.792 102.708 347.631 103.503 347.631 104.33C347.631 108.137 351.013 111.225 355.19 111.225C359.367 111.225 362.75 108.139 362.75 104.33V25.5023C351.341 20.6797 346.698 29.8709 346.698 29.8709H346.696Z" fill="#68E1FD"/>
<path d="M348.501 86.2857H347.638V75.9426L339.302 69.7032V53.0419L351.772 47.0517V37.9287H352.635V47.5266L340.165 53.5168V69.3306L348.501 75.57V86.2857Z" fill="white"/>
<path d="M339.735 71.9569C341.554 71.9569 343.029 70.6118 343.029 68.9526C343.029 67.2934 341.554 65.9484 339.735 65.9484C337.916 65.9484 336.441 67.2934 336.441 68.9526C336.441 70.6118 337.916 71.9569 339.735 71.9569Z" fill="#FFD200"/>
<path d="M352.205 39.7338C354.024 39.7338 355.499 38.3888 355.499 36.7296C355.499 35.0703 354.024 33.7253 352.205 33.7253C350.386 33.7253 348.911 35.0703 348.911 36.7296C348.911 38.3888 350.386 39.7338 352.205 39.7338Z" fill="#FFD200"/>
<path d="M348.287 89.7097C350.106 89.7097 351.581 88.3647 351.581 86.7054C351.581 85.0462 350.106 83.7012 348.287 83.7012C346.468 83.7012 344.993 85.0462 344.993 86.7054C344.993 88.3647 346.468 89.7097 348.287 89.7097Z" fill="#FFD200"/>
<path d="M356.306 95.49H355.443V79.3666H348.07V78.5795H356.306V95.49Z" fill="white"/>
<path d="M353.379 66.7513L348.731 60.3571H339.735V59.5699H349.194L354.099 66.3158L353.379 66.7513Z" fill="white"/>
<path d="M353.738 69.5378C355.557 69.5378 357.032 68.1928 357.032 66.5336C357.032 64.8744 355.557 63.5293 353.738 63.5293C351.919 63.5293 350.444 64.8744 350.444 66.5336C350.444 68.1928 351.919 69.5378 353.738 69.5378Z" fill="#FFD200"/>
<path d="M342.039 42.7184L341.277 43.0883L345.587 50.4718L346.349 50.1019L342.039 42.7184Z" fill="white"/>
<path d="M341.66 45.9049C343.479 45.9049 344.954 44.5599 344.954 42.9006C344.954 41.2414 343.479 39.8964 341.66 39.8964C339.841 39.8964 338.366 41.2414 338.366 42.9006C338.366 44.5599 339.841 45.9049 341.66 45.9049Z" fill="#FFD200"/>
<path d="M384.294 29.8709C385.488 29.5561 386.751 29.3829 388.057 29.3829C395.487 29.3829 401.514 34.8772 401.514 41.6571C401.514 43.541 401.048 45.3226 400.216 46.9179C403.594 49.1481 405.794 52.7716 405.794 56.8648C405.794 60.3623 404.186 63.5162 401.614 65.7516C404.189 67.9871 405.794 71.141 405.794 74.6385C405.794 80.1564 401.801 84.8242 396.307 86.3696C396.635 87.4323 396.816 88.55 396.816 89.7097C396.816 96.4871 390.792 101.984 383.359 101.984C383.207 101.984 383.057 101.979 382.905 101.973C383.198 102.708 383.359 103.503 383.359 104.33C383.359 108.137 379.976 111.225 375.799 111.225C371.625 111.225 368.239 108.139 368.239 104.33V25.5023C379.648 20.6797 384.291 29.8709 384.291 29.8709H384.294Z" fill="#68E1FD"/>
<path d="M383.35 86.2857H382.487V75.57L390.821 69.3306V53.5168L378.354 47.5266V37.9287H379.217V47.0517L391.684 53.0419V69.7032L383.35 75.9426V86.2857Z" fill="white"/>
<path d="M391.252 71.9569C393.071 71.9569 394.546 70.6118 394.546 68.9526C394.546 67.2934 393.071 65.9484 391.252 65.9484C389.433 65.9484 387.958 67.2934 387.958 68.9526C387.958 70.6118 389.433 71.9569 391.252 71.9569Z" fill="#FFD200"/>
<path d="M378.785 39.7338C380.604 39.7338 382.079 38.3888 382.079 36.7296C382.079 35.0703 380.604 33.7253 378.785 33.7253C376.966 33.7253 375.491 35.0703 375.491 36.7296C375.491 38.3888 376.966 39.7338 378.785 39.7338Z" fill="#FFD200"/>
<path d="M382.703 89.7097C384.522 89.7097 385.997 88.3647 385.997 86.7054C385.997 85.0462 384.522 83.7012 382.703 83.7012C380.884 83.7012 379.409 85.0462 379.409 86.7054C379.409 88.3647 380.884 89.7097 382.703 89.7097Z" fill="#FFD200"/>
<path d="M375.548 95.49H374.685V78.5795H382.92V79.3666H375.548V95.49Z" fill="white"/>
<path d="M377.611 66.7513L376.892 66.3158L381.796 59.5699H391.252V60.3571H382.259L377.611 66.7513Z" fill="white"/>
<path d="M377.251 69.5378C379.07 69.5378 380.545 68.1928 380.545 66.5336C380.545 64.8744 379.07 63.5293 377.251 63.5293C375.432 63.5293 373.957 64.8744 373.957 66.5336C373.957 68.1928 375.432 69.5378 377.251 69.5378Z" fill="#FFD200"/>
<path d="M388.944 42.7114L384.635 50.095L385.397 50.4649L389.706 43.0813L388.944 42.7114Z" fill="white"/>
<path d="M389.331 45.9049C391.15 45.9049 392.625 44.5599 392.625 42.9006C392.625 41.2414 391.15 39.8964 389.331 39.8964C387.512 39.8964 386.037 41.2414 386.037 42.9006C386.037 44.5599 387.512 45.9049 389.331 45.9049Z" fill="#FFD200"/>
<path d="M251.906 271.331L251.9 275.987L305.166 275.925L309.148 246.985L310.478 234.844L251.906 271.331Z" fill="white"/>
<path d="M432 290.471L463.756 314L540 300.682L501.953 281L432 290.471Z" fill="white"/>
<path d="M461.885 315C461.586 315 461.436 314.848 461.137 314.848L429.454 290.696C429.006 290.392 428.857 289.633 429.155 289.177C429.305 288.873 429.604 288.722 429.903 288.722L499.546 279C499.845 279 499.994 279 500.293 279.152L538.402 299.203C539 299.506 539.149 300.266 538.851 300.722C538.701 301.025 538.402 301.177 538.103 301.329L462.034 315H461.885ZM433.191 290.544L462.333 312.722L534.666 299.658L499.845 281.278L433.191 290.544Z" fill="#231F20"/>
<defs>
<linearGradient id="paint0_linear_2583_2937" x1="432.36" y1="280.538" x2="499.35" y2="304.928" gradientUnits="userSpaceOnUse">
<stop stop-color="#221F20"/>
<stop offset="0.08" stop-color="#221F20" stop-opacity="0.69"/>
<stop offset="0.21" stop-color="#221F20" stop-opacity="0.32"/>
<stop offset="1" stop-color="#221F20" stop-opacity="0"/>
</linearGradient>
<linearGradient id="paint1_linear_2583_2937" x1="502.43" y1="179.152" x2="422.099" y2="160.334" gradientUnits="userSpaceOnUse">
<stop stop-color="#221F20"/>
<stop offset="0.08" stop-color="#221F20" stop-opacity="0.69"/>
<stop offset="0.21" stop-color="#221F20" stop-opacity="0.32"/>
<stop offset="1" stop-color="#221F20" stop-opacity="0"/>
</linearGradient>
<linearGradient id="paint2_linear_2583_2937" x1="519.037" y1="149.032" x2="448.453" y2="116.578" gradientUnits="userSpaceOnUse">
<stop stop-color="#221F20"/>
<stop offset="0.2" stop-color="#221F20" stop-opacity="0.69"/>
<stop offset="0.23" stop-color="#221F20" stop-opacity="0.6"/>
<stop offset="0.35" stop-color="#221F20" stop-opacity="0.25"/>
<stop offset="0.52" stop-color="#221F20" stop-opacity="0.06"/>
<stop offset="1" stop-color="#221F20" stop-opacity="0"/>
</linearGradient>
<linearGradient id="paint3_linear_2583_2937" x1="497.473" y1="67.2718" x2="611.512" y2="133.257" gradientUnits="userSpaceOnUse">
<stop stop-color="#221F20"/>
<stop offset="0.2" stop-color="#221F20" stop-opacity="0.69"/>
<stop offset="0.23" stop-color="#221F20" stop-opacity="0.6"/>
<stop offset="0.35" stop-color="#221F20" stop-opacity="0.25"/>
<stop offset="0.52" stop-color="#221F20" stop-opacity="0.06"/>
<stop offset="1" stop-color="#221F20" stop-opacity="0"/>
</linearGradient>
<linearGradient id="paint4_linear_2583_2937" x1="621.319" y1="206.007" x2="458.012" y2="178.878" gradientUnits="userSpaceOnUse">
<stop stop-color="#221F20"/>
<stop offset="0.08" stop-color="#221F20" stop-opacity="0.69"/>
<stop offset="0.21" stop-color="#221F20" stop-opacity="0.32"/>
<stop offset="1" stop-color="#221F20" stop-opacity="0"/>
</linearGradient>
<linearGradient id="paint5_linear_2583_2937" x1="638.085" y1="156.604" x2="531.982" y2="241.076" gradientUnits="userSpaceOnUse">
<stop stop-color="#221F20"/>
<stop offset="0.08" stop-color="#221F20" stop-opacity="0.69"/>
<stop offset="0.21" stop-color="#221F20" stop-opacity="0.32"/>
<stop offset="1" stop-color="#221F20" stop-opacity="0"/>
</linearGradient>
<linearGradient id="paint6_linear_2583_2937" x1="619.474" y1="159.394" x2="483.448" y2="85.4886" gradientUnits="userSpaceOnUse">
<stop stop-color="#221F20"/>
<stop offset="0.2" stop-color="#221F20" stop-opacity="0.69"/>
<stop offset="0.23" stop-color="#221F20" stop-opacity="0.6"/>
<stop offset="0.35" stop-color="#221F20" stop-opacity="0.25"/>
<stop offset="0.52" stop-color="#221F20" stop-opacity="0.06"/>
<stop offset="1" stop-color="#221F20" stop-opacity="0"/>
</linearGradient>
<linearGradient id="paint7_linear_2583_2937" x1="398.171" y1="199.204" x2="475.807" y2="114.067" gradientUnits="userSpaceOnUse">
<stop stop-color="#221F20"/>
<stop offset="0.08" stop-color="#221F20" stop-opacity="0.69"/>
<stop offset="0.21" stop-color="#221F20" stop-opacity="0.32"/>
<stop offset="1" stop-color="#221F20" stop-opacity="0"/>
</linearGradient>
<linearGradient id="paint8_linear_2583_2937" x1="652.428" y1="300.122" x2="372.268" y2="215.542" gradientUnits="userSpaceOnUse">
<stop stop-color="#221F20"/>
<stop offset="0.08" stop-color="#221F20" stop-opacity="0.69"/>
<stop offset="0.21" stop-color="#221F20" stop-opacity="0.32"/>
<stop offset="1" stop-color="#221F20" stop-opacity="0"/>
</linearGradient>
<linearGradient id="paint9_linear_2583_2937" x1="613.885" y1="316.692" x2="524.187" y2="350.183" gradientUnits="userSpaceOnUse">
<stop stop-color="#221F20"/>
<stop offset="0.08" stop-color="#221F20" stop-opacity="0.69"/>
<stop offset="0.21" stop-color="#221F20" stop-opacity="0.32"/>
<stop offset="1" stop-color="#221F20" stop-opacity="0"/>
</linearGradient>
<linearGradient id="paint10_linear_2583_2937" x1="526.115" y1="37.293" x2="431.839" y2="180.107" gradientUnits="userSpaceOnUse">
<stop stop-color="#221F20"/>
<stop offset="0.2" stop-color="#221F20" stop-opacity="0.69"/>
<stop offset="0.23" stop-color="#221F20" stop-opacity="0.6"/>
<stop offset="0.35" stop-color="#221F20" stop-opacity="0.25"/>
<stop offset="0.52" stop-color="#221F20" stop-opacity="0.06"/>
<stop offset="1" stop-color="#221F20" stop-opacity="0"/>
</linearGradient>
<linearGradient id="paint11_linear_2583_2937" x1="569.048" y1="205.204" x2="585.349" y2="301.251" gradientUnits="userSpaceOnUse">
<stop stop-color="#221F20"/>
<stop offset="0.08" stop-color="#221F20" stop-opacity="0.69"/>
<stop offset="0.21" stop-color="#221F20" stop-opacity="0.32"/>
<stop offset="1" stop-color="#221F20" stop-opacity="0"/>
</linearGradient>
<linearGradient id="paint12_linear_2583_2937" x1="308.88" y1="284.683" x2="394.827" y2="284.683" gradientUnits="userSpaceOnUse">
<stop offset="0.02" stop-color="white" stop-opacity="0"/>
<stop offset="0.58" stop-color="white" stop-opacity="0.39"/>
<stop offset="0.68" stop-color="white" stop-opacity="0.68"/>
<stop offset="1" stop-color="white"/>
</linearGradient>
</defs>
</svg>
