<svg width="500" height="500" viewBox="0 0 500 500" fill="none" xmlns="http://www.w3.org/2000/svg">
<path opacity="0.18" d="M439.18 418.14C427.08 436.58 410.12 451.42 391.52 463.34L388.05 465.53C374.22 474 359.53 481.11 343.72 484.85C327.35 488.72 310.32 488.86 293.54 489.05C262.68 489.32 231.68 488.69 200.92 490.92C176.62 492.7 155.49 479.4 139.46 461.69C138.79 460.96 138.12 460.19 137.5 459.45C123.16 442.84 113.25 422.9 103.94 403.01C92.4601 378.53 81.4901 353.16 79.3301 326.24C77.5501 304.15 81.7701 282.04 82.1101 259.89C82.5201 232.38 76.9401 204.82 80.0501 177.47C82.7201 153.54 92.0701 130.71 104.1 109.84C114.79 91.2001 127.78 73.6201 144.49 60.1501C164.07 44.6501 187.54 34.8501 212.32 31.8101C269.08 24.5001 328.88 53.7601 357.9 103.2C385.64 150.38 385.34 209.47 409.83 258.41C425.44 289.59 451.11 316.97 455.88 351.51C459.09 374.65 452.05 398.58 439.18 418.15V418.14Z" fill="#68E1FD"/>
<path opacity="0.54" d="M391.51 463.34L388.04 465.53C374.23 474 359.53 481.11 343.72 484.85C327.35 488.72 310.32 488.86 293.54 489.05C262.68 489.32 231.68 488.69 200.92 490.92C176.62 492.7 155.49 479.4 139.46 461.69C138.79 460.96 138.12 460.19 137.5 459.45C165.86 450.55 209.77 444.83 259.08 444.83C315.18 444.83 364.35 452.25 391.51 463.35V463.34Z" fill="#68E1FD"/>
<path d="M277.49 434.71L278.83 447.91C278.83 447.91 273.78 455.55 267.18 456.05C260.58 456.54 258.34 453.38 258.34 453.38L259.42 433.97" fill="#FFB4A3"/>
<path d="M258.27 453.37L258.71 445.58L278.04 440.37L278.76 447.91C278.76 447.91 273.71 455.55 267.11 456.05C260.51 456.54 258.27 453.38 258.27 453.38V453.37Z" fill="white"/>
<path d="M215.85 431.86L214.43 449.6C214.43 449.6 219.61 457.46 226.39 457.96C233.16 458.47 235.48 455.21 235.48 455.21L234.37 435.28" fill="#FFB4A3"/>
<path d="M235.48 455.27L235.04 447.25L215.17 441.91L214.44 449.63C214.44 449.63 219.62 457.49 226.4 457.99C233.17 458.5 235.49 455.26 235.49 455.26L235.48 455.27Z" fill="white"/>
<path d="M208.13 262.8C208.13 262.8 206.94 282.12 209.91 339.38C212.88 396.64 213.76 432.21 213.76 432.21C213.76 432.21 216.69 439 226.55 439.13C236.41 439.26 237.08 435.12 237.08 435.12L246.71 288.31L256.77 438.12C256.77 438.12 269.68 440.44 278.91 435.34C285.46 431.71 277.45 262.61 277.45 262.61C277.45 262.61 245.81 279.99 208.13 262.78V262.8Z" fill="#3F3D56"/>
<path d="M231.96 139.771C231.96 139.771 205.75 152.441 205.15 156.631C204.55 160.831 208.13 262.83 208.13 262.83C208.13 262.83 216.63 273.87 242.69 273.87C268.75 273.87 276.27 266.241 277.43 262.691C278.59 259.141 282.88 157.421 282.29 153.131C281.7 148.841 257.52 139.941 257.52 139.941L231.96 139.771Z" fill="#F3FCFF"/>
<path d="M261.66 179.15L259.32 178.82C260.18 172.69 261.79 160.44 261.79 158C261.79 155.56 260.55 144.92 254.76 139.63C252.25 137.3 248.85 136.2 245.45 136.6C231.49 137.83 227.99 147.06 227.76 147.7C226.89 151.16 226.23 154.66 225.78 158.2H223.38C223.83 154.45 224.52 150.74 225.44 147.08V147C225.59 146.53 229.25 135.6 245.21 134.2C249.26 133.73 253.32 135.05 256.31 137.82C262.79 143.77 264.11 155.19 264.11 157.97C264.14 161.2 261.75 178.43 261.65 179.15H261.66Z" fill="#68E1FD"/>
<path d="M261.66 179.15L259.32 178.82C260.18 172.69 261.79 160.44 261.79 158C261.79 155.56 260.55 144.92 254.76 139.63C252.25 137.3 248.85 136.2 245.45 136.6C231.49 137.83 227.99 147.06 227.76 147.7C226.89 151.16 226.23 154.66 225.78 158.2H223.38C223.83 154.45 224.52 150.74 225.44 147.08V147C225.59 146.53 229.25 135.6 245.21 134.2C249.26 133.73 253.32 135.05 256.31 137.82C262.79 143.77 264.11 155.19 264.11 157.97C264.14 161.2 261.75 178.43 261.65 179.15H261.66Z" fill="url(#paint0_linear_310_3351)"/>
<path d="M260.69 266.55L261.33 326.58L288.62 323.87L278.15 228.63L260.69 266.55Z" fill="#F3FCFF"/>
<path d="M233.54 139.72L233.22 275.54C242.42 278.32 252.33 277.46 260.92 273.14L253.85 139.72L243.62 142.12L233.55 139.72H233.54Z" fill="#68E1FD"/>
<path d="M233.54 139.72L233.22 275.54C242.42 278.32 252.33 277.46 260.92 273.14L253.85 139.72L243.62 142.12L233.55 139.72H233.54Z" fill="#68E1FD"/>
<path d="M233.71 124.38C233.71 124.38 233.55 133.53 233.63 140.23C233.71 145.23 235.17 154.81 244.2 154.81C253.23 154.81 254.29 142.6 254.13 140.23C254.39 136.67 254.39 133.1 254.13 129.54C253.54 123.77 234.22 120.33 233.71 124.38Z" fill="#FFB4A3"/>
<path d="M233.76 134.9C233.76 134.9 234.8 146.48 242.18 144.99C248.22 143.92 252.93 139.15 253.92 133.1C254.49 130.51 253.63 127.81 251.66 126.03L233.76 134.9Z" fill="url(#paint1_linear_310_3351)"/>
<path d="M258.87 125.09C256.02 133.45 248.38 138.64 243.02 139.13C237.66 139.62 231.81 134.73 229.46 128.64C227.11 122.55 226.79 99.1501 226.79 99.1501C226.72 97.5901 227.02 96.0401 227.69 94.6301C228.44 92.9301 229.8 87.8201 231.7 86.3301C240.21 84.1101 249.17 84.3001 257.58 86.8901C259.36 88.4401 260.25 93.3801 260.65 94.2901C260.83 94.8401 260.95 95.4201 261.01 96.0001C261.69 101.65 261.37 117.75 258.87 125.07V125.09Z" fill="#FFB4A3"/>
<path d="M226.55 105.41C225.4 104.67 223.88 104.92 223.02 105.98C222.69 106.66 222.55 107.42 222.63 108.17C222.63 108.93 222.7 109.69 222.82 110.44C223.27 112.46 224.28 114.31 225.73 115.78C226.07 116.17 226.47 116.51 226.92 116.77C227.38 117.03 227.93 117.08 228.43 116.92C229.22 116.48 229.73 115.67 229.77 114.77C230.08 112.9 229.91 110.98 229.28 109.2C228.8 107.67 227.85 106.34 226.55 105.41Z" fill="#FFB4A3"/>
<path d="M262 105.11C263.15 104.37 264.67 104.61 265.53 105.67C265.87 106.35 266.01 107.12 265.92 107.87C265.92 108.63 265.86 109.38 265.73 110.13C265.29 112.15 264.28 114.01 262.82 115.47C262.48 115.86 262.08 116.2 261.63 116.46C261.17 116.72 260.62 116.77 260.12 116.61C259.33 116.18 258.82 115.36 258.78 114.46C258.47 112.59 258.64 110.67 259.26 108.88C259.74 107.36 260.7 106.04 262 105.11Z" fill="#FFB4A3"/>
<path d="M233.15 266.55L232.26 326.58L193.43 323.87L208.33 228.63L233.15 266.55Z" fill="#F3FCFF"/>
<path opacity="0.32" d="M206.23 210.44L217.67 185.46L211.95 324.41L193.43 323.96C193.43 323.96 207.95 250.24 206.23 210.45V210.44Z" fill="url(#paint2_linear_310_3351)"/>
<path opacity="0.32" d="M280.33 207.4L268.89 182.43L268.52 325.67L288.63 323.87C288.63 323.87 278.61 247.22 280.33 207.41V207.4Z" fill="url(#paint3_linear_310_3351)"/>
<path d="M205.69 155.62C205.69 155.62 186.16 203.16 183.94 211.41C181.72 219.67 188.62 244.58 191.33 240.31C199.65 227.16 207.79 206.63 207.79 206.63L205.69 155.62Z" fill="#F3FCFF"/>
<path d="M280.62 150.311C280.62 150.311 300.14 197.861 302.37 206.101C304.6 214.341 297.68 239.271 294.98 235.001C286.64 221.851 278.52 201.321 278.52 201.321L280.62 150.311Z" fill="#F3FCFF"/>
<path d="M284.62 215.1C284.07 215.66 268.52 262.2 268.52 262.2C268.52 262.2 278.57 262.2 285.97 262.8C285.97 262.8 301.24 227.22 301.87 224.05C302.5 220.88 307.13 203.66 296.81 201.59C286.48 199.52 284.63 215.1 284.63 215.1H284.62Z" fill="#F3FCFF"/>
<path d="M201.7 220.4C202.23 220.96 217.73 267.5 217.73 267.5C217.73 267.5 207.67 267.5 200.27 268.1C200.27 268.1 185.01 232.52 184.37 229.35C183.73 226.18 179.12 208.96 189.43 206.89C199.74 204.82 201.7 220.4 201.7 220.4Z" fill="#F3FCFF"/>
<path d="M261.22 106C261.22 105.63 261.09 105.25 261.01 104.88C260.52 102.88 259.86 100.92 259.02 99.0401C257.68 95.8501 256.44 92.6701 255.16 89.4701C254.96 88.9601 254.75 88.4701 254.55 87.9601V87.8701C254.55 87.8701 254.57 87.9601 254.55 88.0001C254.34 88.2201 254.08 88.3901 253.79 88.4801C252.05 89.1301 250.26 89.6601 248.45 90.0401C246.07 90.3601 243.65 90.1901 241.34 89.5301C239.35 88.9601 237.33 87.2601 235.22 87.3501H234.9C232.68 87.4501 230.83 89.0901 230.45 91.2801C230.03 96.4501 228.91 101.54 227.14 106.42C224.87 104.88 224.63 101.84 224.61 99.2101C224.59 96.5801 224.61 93.7601 224.61 91.0201C224.51 89.7001 224.66 88.3701 225.05 87.1101C225.48 85.7801 226.57 84.7601 227.94 84.4401C229.04 84.2501 230.29 84.6101 231.23 84.0101C231.94 83.3601 232.35 82.4501 232.37 81.4801C232.54 79.5401 233.26 77.6901 234.44 76.1401C237.03 73.0801 241.98 72.8801 245.89 74.1601C249.8 75.4401 253.18 77.8601 257.02 79.3401C259.69 80.3401 262.6 81.0201 264.27 83.1601C265.03 84.3701 265.48 85.7401 265.59 87.1501C266.75 93.7601 265.18 100.56 261.23 105.99L261.22 106Z" fill="#3F3D56"/>
<path d="M262.06 103.43C261.82 103.98 261.46 104.47 261 104.87C260.51 102.87 259.85 100.91 259.01 99.0302C257.52 95.3402 256.03 91.6502 254.53 87.9502C255.4 87.4302 256.36 87.0702 257.36 86.8902C258.7 86.6502 260.08 87.0002 261.14 87.8702C261.9 88.6502 262.43 89.6302 262.65 90.7002C263.04 92.4502 263.23 94.2502 263.2 96.0402C263.45 98.5602 263.06 101.09 262.05 103.42L262.06 103.43Z" fill="url(#paint4_linear_310_3351)"/>
<path d="M259.88 86.37C258.14 87.12 256.53 88.17 255.15 89.47C254.95 88.96 254.74 88.47 254.54 87.96V87.87C254.54 87.87 254.56 87.96 254.54 88C254.33 88.22 254.07 88.39 253.78 88.48C252.04 89.13 250.25 89.66 248.44 90.04C246.06 90.36 243.64 90.19 241.33 89.53C239.34 88.96 237.32 87.26 235.21 87.35H234.89C235 87.03 235.13 86.68 235.25 86.31C236.27 83.02 236.93 80.18 240.7 79.15C242.93 78.6 245.28 78.82 247.38 79.76C249.4 80.62 251.25 81.95 253.42 82.3C254.72 82.34 256.02 82.5 257.29 82.78C258.75 83.4 259.75 84.78 259.88 86.36V86.37Z" fill="url(#paint5_linear_310_3351)"/>
<path d="M203.93 267.9L205.73 275.57L219.5 274.9L215.89 267.45L203.93 267.9Z" fill="#FFB4A3"/>
<path d="M271.07 262.04L267.01 271.96L280.1 272.72L281.76 262.49L271.07 262.04Z" fill="#FFB4A3"/>
<path d="M224.14 274.67H202.92V278.44H224.14V274.67Z" fill="#F3FCFF"/>
<path d="M282.6 272.03H263.09V275.57H282.6V272.03Z" fill="#F3FCFF"/>
<path d="M232.05 184.85H226.24V182.45H230.03C231.02 176.08 231.85 162.05 225.78 159.64C224.54 159.09 223.09 159.46 222.27 160.54C218.18 164.91 217.51 178.1 218.15 179.75C218.76 180.38 219.61 180.71 220.49 180.66L220.85 183.04C219.14 183.22 217.46 182.58 216.31 181.3C214.48 179.28 215.84 165.47 219.64 159.99C221.52 157.32 224.02 156.36 226.68 157.41C236.21 161.19 232.4 182.94 232.22 183.86L232.05 184.85Z" fill="#68E1FD"/>
<path d="M232.05 184.85H226.24V182.45H230.03C231.02 176.08 231.85 162.05 225.78 159.64C224.54 159.09 223.09 159.46 222.27 160.54C218.18 164.91 217.51 178.1 218.15 179.75C218.76 180.38 219.61 180.71 220.49 180.66L220.85 183.04C219.14 183.22 217.46 182.58 216.31 181.3C214.48 179.28 215.84 165.47 219.64 159.99C221.52 157.32 224.02 156.36 226.68 157.41C236.21 161.19 232.4 182.94 232.22 183.86L232.05 184.85Z" fill="url(#paint6_linear_310_3351)"/>
<path d="M221.696 182.069C221.799 181.002 221.24 180.076 220.448 180C219.657 179.924 218.932 180.727 218.83 181.793C218.727 182.86 219.286 183.786 220.078 183.862C220.869 183.938 221.594 183.135 221.696 182.069Z" fill="#68E1FD"/>
<path d="M227.414 183.8C227.516 182.733 226.957 181.807 226.166 181.731C225.374 181.655 224.649 182.458 224.547 183.525C224.445 184.591 225.003 185.518 225.795 185.594C226.587 185.67 227.311 184.866 227.414 183.8Z" fill="#68E1FD"/>
<path d="M221.696 182.069C221.799 181.002 221.24 180.076 220.448 180C219.657 179.924 218.932 180.727 218.83 181.793C218.727 182.86 219.286 183.786 220.078 183.862C220.869 183.938 221.594 183.135 221.696 182.069Z" fill="url(#paint7_linear_310_3351)"/>
<path d="M227.414 183.8C227.516 182.733 226.957 181.807 226.166 181.731C225.374 181.655 224.649 182.458 224.547 183.525C224.445 184.591 225.003 185.518 225.795 185.594C226.587 185.67 227.311 184.866 227.414 183.8Z" fill="url(#paint8_linear_310_3351)"/>
<path d="M260.77 184.97C263.183 184.97 265.14 183.014 265.14 180.6C265.14 178.187 263.183 176.23 260.77 176.23C258.356 176.23 256.4 178.187 256.4 180.6C256.4 183.014 258.356 184.97 260.77 184.97Z" fill="#68E1FD"/>
<path d="M261.47 182.71C263.182 182.71 264.57 181.322 264.57 179.61C264.57 177.898 263.182 176.51 261.47 176.51C259.758 176.51 258.37 177.898 258.37 179.61C258.37 181.322 259.758 182.71 261.47 182.71Z" fill="url(#paint9_linear_310_3351)"/>
<path d="M261.64 181.42C262.689 181.42 263.54 180.569 263.54 179.52C263.54 178.471 262.689 177.62 261.64 177.62C260.591 177.62 259.74 178.471 259.74 179.52C259.74 180.569 260.591 181.42 261.64 181.42Z" fill="#F3FCFF"/>
<path d="M258.72 181.021L256.8 182.441C256.8 182.441 257.87 184.301 258.95 184.581L260.29 182.441C260.29 182.441 259.33 182.441 258.73 181.021H258.72Z" fill="url(#paint10_linear_310_3351)"/>
<path d="M296.96 459.92C298.06 460.59 299.32 461.56 299.24 462.97C299.17 463.58 298.93 464.16 298.55 464.64C296.08 468.02 282.52 466.96 278.64 466.92C269.84 466.83 270.2 467.37 261.51 465.73C260.81 465.65 260.13 465.39 259.56 464.98C258.72 464.08 258.24 462.9 258.22 461.67C257.91 458.78 257.98 455.87 258.42 453C258.42 452.7 258.56 452.41 258.78 452.21C259 452.1 259.26 452.1 259.49 452.21C260.87 452.79 262.3 453.24 263.77 453.55C266.18 453.81 268.6 453.26 270.65 451.97C271.71 451.34 272.72 450.63 273.67 449.85C274.32 449.33 275.61 447.67 276.41 447.59C277.21 447.51 278.71 448.85 279.47 449.3L283.09 451.49L296.96 459.92Z" fill="#3F3D56"/>
<path d="M225.74 453.35C222.51 452.31 219.53 450.6 217 448.33C216.53 447.85 215.91 447.53 215.25 447.42C214.92 447.42 214.59 447.49 214.29 447.61C208.19 449.57 202.4 452.37 197.07 455.92C195.65 456.84 194.09 458.2 194.21 460.05C194.34 462.19 196.56 463.2 198.42 463.67C209.15 466.39 220.31 467.01 231.27 465.5C232.23 465.44 233.16 465.11 233.94 464.55C234.83 463.59 235.37 462.36 235.46 461.05C235.93 458.2 236.13 454.24 234.91 451.62C232.25 453.52 228.9 454.16 225.73 453.36L225.74 453.35Z" fill="#3F3D56"/>
<path d="M234.01 141.3C234.01 141.3 239.35 153.02 242.28 154.5L235.6 158.94L233.62 147.6L234.01 141.31V141.3Z" fill="#68E1FD"/>
<path d="M253.98 141.42C253.98 141.42 249.22 154.25 242.32 154.5L249.39 160.99L254.48 151.64L253.99 141.42H253.98Z" fill="#68E1FD"/>
<path d="M234.01 141.3C234.01 141.3 239.35 153.02 242.28 154.5L235.6 158.94L233.62 147.6L234.01 141.31V141.3Z" fill="url(#paint11_linear_310_3351)"/>
<path d="M253.98 141.42C253.98 141.42 249.22 154.25 242.32 154.5L249.39 160.99L254.48 151.64L253.99 141.42H253.98Z" fill="url(#paint12_linear_310_3351)"/>
<path d="M238.2 156.83L240.54 160.78L238.82 244.52L246.22 254.89L251.15 237.61L244.24 160.9L246.22 157.94L242.28 154.48L238.2 156.83Z" fill="#3F3D56"/>
<defs>
<linearGradient id="paint0_linear_310_3351" x1="242.02" y1="174.33" x2="248.34" y2="117.6" gradientUnits="userSpaceOnUse">
<stop offset="0.02" stop-color="white" stop-opacity="0"/>
<stop offset="0.39" stop-color="white" stop-opacity="0.39"/>
<stop offset="1" stop-color="white"/>
</linearGradient>
<linearGradient id="paint1_linear_310_3351" x1="246.01" y1="108.58" x2="242.4" y2="151.61" gradientUnits="userSpaceOnUse">
<stop stop-color="#231F20" stop-opacity="0"/>
<stop offset="1" stop-color="#231F20"/>
</linearGradient>
<linearGradient id="paint2_linear_310_3351" x1="202.96" y1="400.72" x2="214.69" y2="-261.93" gradientUnits="userSpaceOnUse">
<stop stop-color="#231F20" stop-opacity="0"/>
<stop offset="1" stop-color="#231F20"/>
</linearGradient>
<linearGradient id="paint3_linear_310_3351" x1="276.12" y1="402.02" x2="287.85" y2="-260.64" gradientUnits="userSpaceOnUse">
<stop stop-color="#231F20" stop-opacity="0"/>
<stop offset="1" stop-color="#231F20"/>
</linearGradient>
<linearGradient id="paint4_linear_310_3351" x1="255.34" y1="95.8602" x2="264.03" y2="95.8602" gradientUnits="userSpaceOnUse">
<stop stop-color="#231F20" stop-opacity="0"/>
<stop offset="1" stop-color="#231F20"/>
</linearGradient>
<linearGradient id="paint5_linear_310_3351" x1="234.78" y1="84.53" x2="259.88" y2="84.53" gradientUnits="userSpaceOnUse">
<stop stop-color="#231F20" stop-opacity="0"/>
<stop offset="1" stop-color="#231F20"/>
</linearGradient>
<linearGradient id="paint6_linear_310_3351" x1="224.41" y1="183.48" x2="223.95" y2="141.21" gradientUnits="userSpaceOnUse">
<stop offset="0.02" stop-color="white" stop-opacity="0"/>
<stop offset="0.39" stop-color="white" stop-opacity="0.39"/>
<stop offset="1" stop-color="white"/>
</linearGradient>
<linearGradient id="paint7_linear_310_3351" x1="218.821" y1="181.925" x2="221.711" y2="181.925" gradientUnits="userSpaceOnUse">
<stop stop-color="#231F20" stop-opacity="0"/>
<stop offset="1" stop-color="#231F20"/>
</linearGradient>
<linearGradient id="paint8_linear_310_3351" x1="224.538" y1="183.653" x2="227.438" y2="183.653" gradientUnits="userSpaceOnUse">
<stop stop-color="#231F20" stop-opacity="0"/>
<stop offset="1" stop-color="#231F20"/>
</linearGradient>
<linearGradient id="paint9_linear_310_3351" x1="262.7" y1="173.67" x2="260.36" y2="185.04" gradientUnits="userSpaceOnUse">
<stop stop-color="#231F20" stop-opacity="0"/>
<stop offset="1" stop-color="#231F20"/>
</linearGradient>
<linearGradient id="paint10_linear_310_3351" x1="259.58" y1="170.531" x2="257.89" y2="189.941" gradientUnits="userSpaceOnUse">
<stop stop-color="#231F20" stop-opacity="0"/>
<stop offset="1" stop-color="#231F20"/>
</linearGradient>
<linearGradient id="paint11_linear_310_3351" x1="238.94" y1="138.96" x2="235.99" y2="172.02" gradientUnits="userSpaceOnUse">
<stop offset="0.02" stop-color="white" stop-opacity="0"/>
<stop offset="0.39" stop-color="white" stop-opacity="0.39"/>
<stop offset="1" stop-color="white"/>
</linearGradient>
<linearGradient id="paint12_linear_310_3351" x1="249.57" y1="139.91" x2="246.62" y2="172.97" gradientUnits="userSpaceOnUse">
<stop offset="0.02" stop-color="white" stop-opacity="0"/>
<stop offset="0.39" stop-color="white" stop-opacity="0.39"/>
<stop offset="1" stop-color="white"/>
</linearGradient>
</defs>
</svg>
