<svg width="51" height="50" viewBox="0 0 51 50" fill="none" xmlns="http://www.w3.org/2000/svg">
<path d="M50.5 25C50.5 38.5217 39.3165 49.5 25.5 49.5C11.6835 49.5 0.5 38.5217 0.5 25C0.5 11.4783 11.6835 0.5 25.5 0.5C39.3165 0.5 50.5 11.4783 50.5 25Z" fill="#BDE2FF" stroke="#3F81B4"/>
<path d="M26.2311 36.7608L19.4608 36.6372C17.2687 36.5941 15.0712 36.6801 12.9221 36.2338C9.65279 35.567 9.42118 32.2975 9.17883 29.5551C8.84489 25.6995 8.97417 21.7739 9.60435 17.9506C9.96011 15.8052 11.3602 14.5251 13.5253 14.3858C20.8342 13.8803 28.1917 13.9402 35.4845 14.176C36.2547 14.1977 37.0302 14.3158 37.7896 14.4503C41.5385 15.1064 41.6299 18.8115 41.8729 21.9304C42.1152 25.0816 42.0129 28.2489 41.5497 31.3785C41.1781 33.9698 40.4671 36.1429 37.4664 36.3527C33.7068 36.627 30.0335 36.8478 26.2633 36.7775C26.2635 36.7608 26.2418 36.7608 26.2311 36.7608ZM22.2508 30.2004C25.084 28.5763 27.8631 26.9793 30.6801 25.3661C27.8416 23.742 25.0678 22.145 22.2508 20.5318V30.2004Z" fill="#3F81B4"/>
</svg>
