<svg width="51" height="50" viewBox="0 0 51 50" fill="none" xmlns="http://www.w3.org/2000/svg">
<path d="M50.5 25C50.5 38.5217 39.3165 49.5 25.5 49.5C11.6835 49.5 0.5 38.5217 0.5 25C0.5 11.4783 11.6835 0.5 25.5 0.5C39.3165 0.5 50.5 11.4783 50.5 25Z" fill="#BDE2FF" stroke="#3F81B4"/>
<path d="M42 17.8335V33.1635C42 34.1799 41.5654 35.1547 40.7918 35.8735C40.0182 36.5922 38.969 36.996 37.875 36.996H13.125C12.031 36.996 10.9818 36.5922 10.2082 35.8735C9.4346 35.1547 9 34.1799 9 33.1635V17.8335" fill="#3F81B4"/>
<path d="M42 17.8335V33.1635C42 34.1799 41.5654 35.1547 40.7918 35.8735C40.0182 36.5922 38.969 36.996 37.875 36.996H13.125C12.031 36.996 10.9818 36.5922 10.2082 35.8735C9.4346 35.1547 9 34.1799 9 33.1635V17.8335" stroke="#B3D3FC" stroke-width="1.67948" stroke-linecap="round" stroke-linejoin="round"/>
<path d="M42 17.8325C42 16.8161 41.5654 15.8412 40.7918 15.1225C40.0182 14.4038 38.969 14 37.875 14H13.125C12.031 14 10.9818 14.4038 10.2082 15.1225C9.4346 15.8412 9 16.8161 9 17.8325L23.3138 26.1362C23.9693 26.5169 24.7269 26.7188 25.5 26.7188C26.2731 26.7188 27.0307 26.5169 27.6863 26.1362L42 17.8325Z" fill="#3F81B4" stroke="#B3D3FC" stroke-width="1.67948" stroke-linecap="round" stroke-linejoin="round"/>
</svg>
