<svg width="53" height="47" viewBox="0 0 53 47" fill="none" xmlns="http://www.w3.org/2000/svg">
<path d="M41.0432 32.2595C41.2399 32.8077 41.3465 33.3912 41.3465 33.997C41.3465 37.1593 38.456 39.7226 34.89 39.7226C34.8503 39.7226 34.8115 39.7209 34.7718 39.72C34.3231 41.9861 32.0944 43.7081 29.4112 43.7081C28.5681 43.7081 27.7716 43.538 27.0594 43.2355H27.0584C26.3462 43.538 25.5506 43.7081 24.7085 43.7081C22.0244 43.7081 19.7956 41.9861 19.347 39.72C19.3073 39.7209 19.2685 39.7226 19.2288 39.7226C15.6628 39.7226 12.7722 37.1593 12.7722 33.997C12.7722 33.3912 12.8788 32.8077 13.0755 32.2595C11.6317 31.0066 10.7344 29.2596 10.7344 27.3261C10.7344 25.1486 11.872 23.2083 13.6482 21.9425C13.2809 21.2482 13.0745 20.4731 13.0745 19.6559C13.0745 17.6735 14.28 15.9402 16.0766 15.0027C16.0766 15.0027 16.0775 15.0018 16.0795 15.001C16.6454 14.7062 17.2694 14.4897 17.9332 14.3694C18.127 14.3342 18.3247 14.3067 18.5253 14.2886C18.5224 14.2293 18.5194 14.1692 18.5194 14.1099C18.5194 11.4426 20.9575 9.28052 23.9653 9.28052C25.1146 9.28052 26.1795 9.5976 27.0584 10.1355C27.0584 10.1364 27.0594 10.1364 27.0594 10.1364C27.9383 9.5976 29.0042 9.28052 30.1534 9.28052C33.1613 9.28052 35.5993 11.4426 35.5993 14.1099C35.5993 14.1692 35.5964 14.2293 35.5935 14.2886C38.6566 14.5696 41.0442 16.8657 41.0442 19.6559C41.0442 20.4731 40.8378 21.2482 40.4705 21.9425C42.2468 23.2083 43.3844 25.1486 43.3844 27.3261C43.3844 29.2596 42.4871 31.0066 41.0432 32.2595Z" fill="#FFDD46"/>
<path d="M41.0434 32.2595C41.2401 32.8077 41.3467 33.3912 41.3467 33.997C41.3467 37.1593 38.4561 39.7226 34.8902 39.7226C34.8504 39.7226 34.8117 39.7209 34.772 39.72C34.3233 41.9861 32.0946 43.7081 29.4114 43.7081C28.5683 43.7081 27.7718 43.538 27.0596 43.2355H27.0586V10.1355C27.0586 10.1364 27.0596 10.1364 27.0596 10.1364C27.9385 9.5976 29.0044 9.28052 30.1536 9.28052C33.1615 9.28052 35.5995 11.4426 35.5995 14.1099C35.5995 14.1692 35.5966 14.2293 35.5937 14.2886C38.6567 14.5696 41.0444 16.8657 41.0444 19.6559C41.0444 20.4731 40.838 21.2482 40.4707 21.9425C42.2469 23.2083 43.3846 25.1486 43.3846 27.3261C43.3846 29.2596 42.4873 31.0066 41.0434 32.2595V32.2595Z" fill="#FFB54C"/>
<path d="M28.5135 2.28897V5.01988C28.5135 5.73139 27.8623 6.30885 27.06 6.30885C26.2576 6.30885 25.6064 5.73139 25.6064 5.01988V2.28897C25.6064 1.57746 26.2576 1 27.06 1C27.8623 1 28.5135 1.57746 28.5135 2.28897Z" fill="#FF5959"/>
<path d="M36.9691 7.20711C36.5971 7.20711 36.2251 7.08131 35.9414 6.82953C35.3737 6.32614 35.3737 5.51005 35.9414 5.00666L38.1187 3.07578C38.6863 2.5724 39.6067 2.5724 40.1743 3.07578C40.742 3.57917 40.742 4.39526 40.1743 4.89865L37.9969 6.82953C37.713 7.08131 37.3411 7.20711 36.9691 7.20711V7.20711Z" fill="#FF5959"/>
<path d="M17.1504 7.20711C16.7784 7.20711 16.4064 7.08131 16.1226 6.82953L13.9453 4.89865C13.3776 4.39526 13.3776 3.57917 13.9453 3.07578C14.5128 2.5724 15.4332 2.5724 16.0008 3.07578L18.1782 5.00666C18.7459 5.51005 18.7459 6.32614 18.1782 6.82953C17.8944 7.08131 17.5224 7.20711 17.1504 7.20711Z" fill="#FF5959"/>
<path d="M50.8527 9.34005L48.8778 8.78398L51.2489 7.19073C51.8887 6.76081 52.0143 5.95228 51.5295 5.38488C51.0448 4.81756 50.1332 4.70593 49.4931 5.13602L44.8855 8.23213C43.9466 8.86304 44.2031 10.1726 45.3236 10.488L47.2984 11.044L44.9285 12.6363C44.2886 13.0662 44.1629 13.8747 44.6477 14.4421C45.1326 15.0097 46.0443 15.1209 46.6841 14.6911C46.7687 14.6343 51.2179 11.6452 51.3015 11.5879C52.2153 10.9627 51.9832 9.66229 50.8527 9.34005V9.34005Z" fill="#FF5959"/>
<path d="M9.23451 8.23157L4.62694 5.13546C3.98701 4.70554 3.07516 4.81699 2.59056 5.38431C2.10566 5.95172 2.23134 6.76016 2.87118 7.19017L5.24227 8.78342C5.21126 8.79219 3.27526 9.33708 3.24435 9.34619C2.15179 9.67075 1.89219 10.9649 2.82932 11.5954L7.43602 14.6906C8.07635 15.1208 8.9878 15.0087 9.47241 14.4417C9.95721 13.8743 9.83143 13.0657 9.19168 12.6358L6.82176 11.0435L8.79652 10.4875C9.91922 10.1713 10.1715 8.86119 9.23451 8.23157V8.23157Z" fill="#FF5959"/>
<path d="M44.8383 27.3265C44.8383 25.1559 43.8819 23.1047 42.1813 21.5786C42.3915 20.9582 42.4981 20.3145 42.4981 19.6563C42.4981 16.5971 40.1986 13.9968 36.9796 13.2123C36.4883 10.2631 33.6142 7.99194 30.1538 7.99194C29.0695 7.99194 28.0162 8.21451 27.0598 8.64159H27.0588C26.1024 8.21451 25.05 7.99194 23.9657 7.99194C20.5044 7.99194 17.6303 10.264 17.14 13.214C16.512 13.3687 15.9103 13.5947 15.3434 13.8903C15.3357 13.8937 15.3279 13.898 15.3202 13.9023C13.0381 15.1019 11.6214 17.3043 11.6214 19.6563C11.6214 20.3154 11.728 20.9582 11.9383 21.5786C10.2386 23.1047 9.28125 25.1525 9.28125 27.3265C9.28125 29.2909 10.0536 31.1445 11.4712 32.6225C10.5652 36.6604 13.7465 40.4466 18.2175 40.9553C19.5092 44.1528 23.4996 45.7812 27.0588 44.6323H27.0598C30.6064 45.7769 34.6055 44.1657 35.902 40.9553C40.3731 40.4466 43.5553 36.6604 42.6483 32.6225C44.066 31.1445 44.8383 29.2909 44.8383 27.3265ZM25.6062 20.4666C24.0287 19.3023 22.5393 18.925 22.4385 18.901C21.6643 18.7136 20.8649 19.1175 20.6536 19.8041C20.4424 20.4915 20.8988 21.1996 21.673 21.3878C21.6992 21.3938 24.239 22.0718 25.6062 24.5621V42.3293C23.3872 42.7822 21.1759 41.5044 20.7786 39.4979C20.6546 38.8689 20.0325 38.416 19.3115 38.4315L19.2292 38.4341C16.4704 38.4341 14.2261 36.4439 14.2261 33.9974C14.2261 33.5677 14.2959 33.1432 14.4325 32.7342C14.7184 31.8843 16.0847 30.6899 17.39 29.92C17.7563 30.4948 18.2543 31.0534 18.9249 31.5552C19.5392 32.015 20.4559 31.9462 20.9734 31.4014C21.4918 30.8575 21.4133 30.0446 20.7999 29.5857C18.7863 28.0776 19.4123 25.5546 19.4433 25.4369C19.6284 24.7469 19.1507 24.0534 18.3735 23.885C17.5935 23.7166 16.8076 24.1402 16.6167 24.8319C16.5934 24.9179 16.3066 26.0058 16.4868 27.3884C15.3328 27.9727 13.9597 28.9103 12.9451 29.9921C12.4509 29.1835 12.1883 28.2735 12.1883 27.3265C12.1883 25.6174 13.0527 24.0216 14.5595 22.9475C15.0818 22.5754 15.2494 21.9335 14.9645 21.3955C14.6748 20.8482 14.5285 20.263 14.5285 19.6563C14.5285 18.2066 15.4045 16.8498 16.8144 16.1142C16.8144 16.1142 16.8144 16.1142 16.8144 16.1133C16.8202 16.1108 16.826 16.1073 16.8318 16.1047C16.8328 16.1047 16.8328 16.1039 16.8328 16.1039C18.4539 15.2686 20.0858 15.5067 21.705 15.865C22.4831 16.0369 23.2719 15.6166 23.4667 14.9258C23.6605 14.2349 23.1856 13.5354 22.4075 13.3627C21.3687 13.1341 20.7544 13.025 20.1817 12.9846C20.7137 11.583 22.2079 10.5699 23.9657 10.5699C24.5374 10.5699 25.0936 10.6773 25.6062 10.8827V20.4666ZM40.0271 31.3387C39.6347 31.679 39.4922 32.1868 39.6589 32.6509C39.8139 33.0848 39.8934 33.5385 39.8934 33.9974C39.8934 36.4439 37.6492 38.4341 34.8914 38.4341L34.808 38.4315C34.088 38.4143 33.465 38.8689 33.3409 39.4979C32.9436 41.5001 30.7382 42.7839 28.5133 42.3293V31.0568C28.9368 30.4141 30.2808 28.643 32.2091 28.643H32.2547C33.0502 28.643 33.6985 28.075 33.7072 27.3678C33.7159 26.6563 33.0725 26.0728 32.2692 26.0651C30.7566 26.0505 29.5027 26.5497 28.5133 27.2054V10.8827C29.0259 10.6773 29.5821 10.5699 30.1538 10.5699C32.4339 10.5699 34.2363 12.2688 34.1413 14.234C34.1094 14.9154 34.6801 15.5006 35.4447 15.5711C37.9098 15.7971 39.751 17.7013 39.5785 19.9416C38.1502 19.3383 36.5503 19.0556 34.9495 19.1544C34.1481 19.2034 33.5444 19.8196 33.6006 20.5294C33.6559 21.24 34.3497 21.7745 35.151 21.7255C38.8042 21.4995 41.9312 24.0646 41.9312 27.3265C41.9312 28.8484 41.2549 30.2731 40.0271 31.3387V31.3387Z" fill="#FFB54C"/>
<path d="M37.2355 31.5781C36.5359 34.8452 32.8062 35.8102 32.6473 35.8497C32.6473 35.8497 31.3943 36.1634 30.8788 35.0231C30.527 33.6997 31.8507 33.3706 31.8507 33.3706L31.8594 33.368H31.8604C32.0368 33.3199 34.0281 32.7407 34.3799 31.0969C34.5301 30.3974 35.2907 29.9385 36.0795 30.0708C36.8683 30.204 37.3857 30.8786 37.2355 31.5781V31.5781Z" fill="#FF9100"/>
<path d="M44.8381 27.3265C44.8381 25.1559 43.8817 23.1047 42.181 21.5786C42.3913 20.9582 42.4979 20.3145 42.4979 19.6563C42.4979 16.5971 40.1984 13.9968 36.9794 13.2123C36.4881 10.2631 33.614 7.99194 30.1536 7.99194C29.0693 7.99194 28.016 8.21451 27.0596 8.64159H27.0586V44.6323H27.0596C30.6062 45.7769 34.6053 44.1657 35.9018 40.9553C40.3729 40.4466 43.5551 36.6604 42.6481 32.6225C44.0658 31.1445 44.8381 29.2909 44.8381 27.3265ZM40.0269 31.3387C39.6345 31.679 39.492 32.1868 39.6587 32.6509C39.8137 33.0848 39.8932 33.5385 39.8932 33.9974C39.8932 36.4439 37.649 38.434 34.8911 38.434L34.8078 38.4315C34.0878 38.4143 33.4648 38.8689 33.3407 39.4979C32.9434 41.5001 30.7379 42.7839 28.5131 42.3293V31.0568C28.9365 30.4141 30.2806 28.643 32.2089 28.643H32.2545C33.05 28.643 33.6983 28.075 33.707 27.3678C33.7157 26.6563 33.0723 26.0728 32.269 26.0651C30.7564 26.0505 29.5025 26.5497 28.5131 27.2054V10.8827C29.0257 10.6773 29.5819 10.5699 30.1536 10.5699C32.4337 10.5699 34.2361 12.2688 34.1411 14.234C34.1091 14.9154 34.6799 15.5006 35.4445 15.5711C37.9096 15.7971 39.7508 17.7013 39.5783 19.9416C38.1499 19.3383 36.5501 19.0556 34.9493 19.1544C34.1479 19.2034 33.5442 19.8196 33.6004 20.5294C33.6557 21.24 34.3495 21.7745 35.1508 21.7255C38.804 21.4995 41.931 24.0646 41.931 27.3265C41.931 28.8484 41.2547 30.2731 40.0269 31.3387V31.3387Z" fill="#FF9100"/>
</svg>
